<svg xmlns="http://www.w3.org/2000/svg" width="390" height="1426" viewBox="0 0 390 1426">
<rect width="390" height="1426" fill="#FFFFFF"/>
<rect width="390" height="1400" fill="#FFFFFF"/>
<g><rect x="0" y="0" width="390" height="4000" rx="0" fill="#FFFFFF"/><rect x="0" y="0" width="390" height="56" rx="0" fill="#FFFFFF" stroke="#C4C4C4" stroke-width="1"/><rect x="16" y="16" width="24" height="24" rx="4" fill="#B4B4B4"/><rect x="56" y="17" width="258" height="24" rx="12" fill="#FFFFFF" stroke="#C4C4C4" stroke-width="1"/><text x="68" y="33" font-family="Inter, 'Segoe UI', Arial, sans-serif" font-size="10" fill="#7A7A7A" font-weight="400" text-anchor="start">Rechercher…</text><rect x="322" y="17" width="24" height="24" rx="6" fill="#FFFFFF" stroke="#C4C4C4" stroke-width="1"/><rect x="354" y="17" width="24" height="24" rx="6" fill="#FFFFFF" stroke="#C4C4C4" stroke-width="1"/><rect x="16" y="84" width="102.60000000000001" height="7" rx="3.5" fill="#D8D8D8"/><rect x="16" y="104" width="358" height="260" rx="3" fill="#E4E4E4" stroke="#C4C4C4" stroke-width="1"/><path d="M16,104 L374,364 M374,104 L16,364" stroke="#D0D0D0" stroke-width="1" fill="none"/><text x="195.0" y="238.0" font-family="Inter, 'Segoe UI', Arial, sans-serif" font-size="11" fill="#7A7A7A" font-weight="400" text-anchor="middle">visuel premium</text><rect x="46" y="236" width="280" height="22" rx="11.0" fill="#B4B4B4"/><rect x="46" y="276" width="298" height="7" rx="3.5" fill="#D8D8D8"/><rect x="46" y="291" width="184" height="7" rx="3.5" fill="#D8D8D8"/><rect x="46" y="306" width="106.60000000000001" height="38" rx="19.0" fill="#8A8A8A"/><text x="99.30000000000001" y="329.0" font-family="Inter, 'Segoe UI', Arial, sans-serif" font-size="12" fill="#FFFFFF" font-weight="600" text-anchor="middle">S'abonner</text><rect x="164.60000000000002" y="306" width="143.60000000000002" height="38" rx="19.0" fill="#FFFFFF" stroke="#8A8A8A" stroke-width="1"/><text x="236.40000000000003" y="329.0" font-family="Inter, 'Segoe UI', Arial, sans-serif" font-size="12" fill="#4A4A4A" font-weight="600" text-anchor="middle">En savoir plus</text><rect x="16.0" y="388" width="169.0" height="64" rx="3" fill="#F4F4F4" stroke="#C4C4C4" stroke-width="1"/><circle cx="40.0" cy="420.0" r="9" fill="#B4B4B4"/><rect x="58.0" y="416.0" width="99.0" height="8" rx="4.0" fill="#D8D8D8"/><rect x="205.0" y="388" width="169.0" height="64" rx="3" fill="#F4F4F4" stroke="#C4C4C4" stroke-width="1"/><circle cx="229.0" cy="420.0" r="9" fill="#B4B4B4"/><rect x="247.0" y="416.0" width="99.0" height="8" rx="4.0" fill="#D8D8D8"/><rect x="16.0" y="476" width="358.0" height="330" rx="3" fill="#F4F4F4" stroke="#C4C4C4" stroke-width="1"/><rect x="36.0" y="504" width="90" height="10" rx="5.0" fill="#B4B4B4"/><rect x="36.0" y="532" width="120" height="20" rx="10.0" fill="#B4B4B4"/><circle cx="42.0" cy="580" r="3" fill="#8A8A8A"/><rect x="54.0" y="576" width="91.80000000000001" height="7" rx="3.5" fill="#D8D8D8"/><circle cx="42.0" cy="604" r="3" fill="#8A8A8A"/><rect x="54.0" y="600" width="37.800000000000004" height="7" rx="3.5" fill="#D8D8D8"/><circle cx="42.0" cy="628" r="3" fill="#8A8A8A"/><rect x="54.0" y="624" width="21.6" height="7" rx="3.5" fill="#D8D8D8"/><rect x="36.0" y="750" width="318.0" height="38" rx="19.0" fill="#FFFFFF" stroke="#8A8A8A" stroke-width="1"/><text x="195.0" y="773.0" font-family="Inter, 'Segoe UI', Arial, sans-serif" font-size="12" fill="#4A4A4A" font-weight="600" text-anchor="middle">Choisir</text><rect x="16" y="830" width="358" height="88" rx="4" fill="#FFFFFF" stroke="#B8B8B8" stroke-width="1" stroke-dasharray="5 4"/><text x="28" y="850" font-family="Inter, 'Segoe UI', Arial, sans-serif" font-size="10" fill="#7A7A7A" font-weight="700" text-anchor="start">NOTE</text><text x="28" y="868" font-family="Inter, 'Segoe UI', Arial, sans-serif" font-size="11" fill="#7A7A7A" font-weight="400" text-anchor="start">L'interface d'abonnement existe, le prélèvement réel est</text><text x="28" y="882" font-family="Inter, 'Segoe UI', Arial, sans-serif" font-size="11" fill="#7A7A7A" font-weight="400" text-anchor="start">hors périmètre : la limite est documentée au cahier des</text><text x="28" y="896" font-family="Inter, 'Segoe UI', Arial, sans-serif" font-size="11" fill="#7A7A7A" font-weight="400" text-anchor="start">charges.</text><rect x="16" y="936" width="358" height="92" rx="3" fill="#F4F4F4" stroke="#C4C4C4" stroke-width="1"/><rect x="36" y="956" width="268" height="9" rx="4.5" fill="#B4B4B4"/><rect x="36" y="982" width="298" height="7" rx="3.5" fill="#D8D8D8"/><rect x="36" y="996" width="184" height="7" rx="3.5" fill="#D8D8D8"/><text x="346" y="968" font-family="Inter, 'Segoe UI', Arial, sans-serif" font-size="15" fill="#7A7A7A" font-weight="400" text-anchor="middle">−</text><rect x="16" y="1038" width="358" height="52" rx="3" fill="#F4F4F4" stroke="#C4C4C4" stroke-width="1"/><rect x="36" y="1058" width="268" height="9" rx="4.5" fill="#B4B4B4"/><text x="346" y="1070" font-family="Inter, 'Segoe UI', Arial, sans-serif" font-size="15" fill="#7A7A7A" font-weight="400" text-anchor="middle">+</text><rect x="16" y="1100" width="358" height="52" rx="3" fill="#F4F4F4" stroke="#C4C4C4" stroke-width="1"/><rect x="36" y="1120" width="268" height="9" rx="4.5" fill="#B4B4B4"/><text x="346" y="1132" font-family="Inter, 'Segoe UI', Arial, sans-serif" font-size="15" fill="#7A7A7A" font-weight="400" text-anchor="middle">+</text><rect x="16" y="1162" width="358" height="52" rx="3" fill="#F4F4F4" stroke="#C4C4C4" stroke-width="1"/><rect x="36" y="1182" width="268" height="9" rx="4.5" fill="#B4B4B4"/><text x="346" y="1194" font-family="Inter, 'Segoe UI', Arial, sans-serif" font-size="15" fill="#7A7A7A" font-weight="400" text-anchor="middle">+</text><rect x="0" y="1254" width="390" height="120" rx="0" fill="#EAEAEA"/><rect x="28.0" y="1276" width="68" height="8" rx="4.0" fill="#B4B4B4"/><rect x="28.0" y="1296" width="90" height="6" rx="3.0" fill="#D8D8D8"/><rect x="28.0" y="1309" width="90" height="6" rx="3.0" fill="#D8D8D8"/><rect x="28.0" y="1322" width="90" height="6" rx="3.0" fill="#D8D8D8"/><rect x="195.0" y="1276" width="68" height="8" rx="4.0" fill="#B4B4B4"/><rect x="195.0" y="1296" width="90" height="6" rx="3.0" fill="#D8D8D8"/><rect x="195.0" y="1309" width="90" height="6" rx="3.0" fill="#D8D8D8"/><rect x="195.0" y="1322" width="90" height="6" rx="3.0" fill="#D8D8D8"/><rect x="0" y="1374" width="390" height="26" rx="0" fill="#FAFAFA"/><line x1="0" y1="1374" x2="390" y2="1374" stroke="#E5E5E5" stroke-width="1"/><text x="14" y="1391" font-family="Inter, 'Segoe UI', Arial, sans-serif" font-size="10" fill="#7A7A7A" font-weight="400" text-anchor="start">page_premium.html   ·   Wireframe mobile 390 px</text></g>
<rect x="0.5" y="0.5" width="389" height="1399" fill="none" stroke="#D4D4D4" stroke-width="1"/>
<text x="0" y="1418" font-family="Inter, 'Segoe UI', Arial, sans-serif" font-size="12" fill="#7A7A7A">Abonnement Premium — Wireframe mobile 390 px  —  390 × 1400</text>
</svg>