<svg xmlns="http://www.w3.org/2000/svg" width="390" height="1204" viewBox="0 0 390 1204">
<rect width="390" height="1204" fill="#FFFFFF"/>
<rect width="390" height="1178" fill="#FFFFFF"/>
<g><rect x="0" y="0" width="390" height="4000" rx="0" fill="#FFFFFF"/><rect x="0" y="0" width="390" height="56" rx="0" fill="#FFFFFF" stroke="#C4C4C4" stroke-width="1"/><rect x="16" y="16" width="24" height="24" rx="4" fill="#B4B4B4"/><rect x="56" y="17" width="258" height="24" rx="12" fill="#FFFFFF" stroke="#C4C4C4" stroke-width="1"/><text x="68" y="33" font-family="Inter, 'Segoe UI', Arial, sans-serif" font-size="10" fill="#7A7A7A" font-weight="400" text-anchor="start">Rechercher…</text><rect x="322" y="17" width="24" height="24" rx="6" fill="#FFFFFF" stroke="#C4C4C4" stroke-width="1"/><rect x="354" y="17" width="24" height="24" rx="6" fill="#FFFFFF" stroke="#C4C4C4" stroke-width="1"/><rect x="16" y="74" width="358" height="130" rx="3" fill="#EAEAEA" stroke="#C4C4C4" stroke-width="1"/><rect x="42" y="106" width="298" height="20" rx="10.0" fill="#B4B4B4"/><rect x="42" y="140" width="298" height="8" rx="4.0" fill="#D8D8D8"/><rect x="16.0" y="228" width="169.0" height="190" rx="3" fill="#F4F4F4" stroke="#C4C4C4" stroke-width="1"/><circle cx="40.0" cy="323.0" r="9" fill="#B4B4B4"/><rect x="58.0" y="319.0" width="99.0" height="8" rx="4.0" fill="#D8D8D8"/><rect x="205.0" y="228" width="169.0" height="190" rx="3" fill="#F4F4F4" stroke="#C4C4C4" stroke-width="1"/><circle cx="229.0" cy="323.0" r="9" fill="#B4B4B4"/><rect x="247.0" y="319.0" width="99.0" height="8" rx="4.0" fill="#D8D8D8"/><rect x="16" y="442" width="358" height="558" rx="3" fill="#F4F4F4" stroke="#C4C4C4" stroke-width="1"/><text x="40" y="490" font-family="Inter, 'Segoe UI', Arial, sans-serif" font-size="14.4" fill="#4A4A4A" font-weight="700" text-anchor="start">Créer un compte</text><rect x="40.0" y="510" width="110" height="7" rx="3.5" fill="#D8D8D8"/><rect x="40.0" y="524" width="310.0" height="36" rx="4" fill="#FFFFFF" stroke="#C4C4C4" stroke-width="1"/><text x="50.0" y="546.0" font-family="Inter, 'Segoe UI', Arial, sans-serif" font-size="12" fill="#7A7A7A" font-weight="400" text-anchor="start"></text><rect x="40.0" y="576" width="110" height="7" rx="3.5" fill="#D8D8D8"/><rect x="40.0" y="590" width="310.0" height="36" rx="4" fill="#FFFFFF" stroke="#C4C4C4" stroke-width="1"/><text x="50.0" y="612.0" font-family="Inter, 'Segoe UI', Arial, sans-serif" font-size="12" fill="#7A7A7A" font-weight="400" text-anchor="start"></text><rect x="40.0" y="642" width="110" height="7" rx="3.5" fill="#D8D8D8"/><rect x="40.0" y="656" width="310.0" height="36" rx="4" fill="#FFFFFF" stroke="#C4C4C4" stroke-width="1"/><text x="50.0" y="678.0" font-family="Inter, 'Segoe UI', Arial, sans-serif" font-size="12" fill="#7A7A7A" font-weight="400" text-anchor="start"></text><rect x="40.0" y="708" width="110" height="7" rx="3.5" fill="#D8D8D8"/><rect x="40.0" y="722" width="310.0" height="36" rx="4" fill="#FFFFFF" stroke="#C4C4C4" stroke-width="1"/><text x="50.0" y="744.0" font-family="Inter, 'Segoe UI', Arial, sans-serif" font-size="12" fill="#7A7A7A" font-weight="400" text-anchor="start"></text><rect x="40.0" y="774" width="110" height="7" rx="3.5" fill="#D8D8D8"/><rect x="40.0" y="788" width="310.0" height="36" rx="4" fill="#FFFFFF" stroke="#C4C4C4" stroke-width="1"/><text x="50.0" y="810.0" font-family="Inter, 'Segoe UI', Arial, sans-serif" font-size="12" fill="#7A7A7A" font-weight="400" text-anchor="start"></text><rect x="40.0" y="840" width="110" height="7" rx="3.5" fill="#D8D8D8"/><rect x="40.0" y="854" width="310.0" height="36" rx="4" fill="#FFFFFF" stroke="#C4C4C4" stroke-width="1"/><text x="50.0" y="876.0" font-family="Inter, 'Segoe UI', Arial, sans-serif" font-size="12" fill="#7A7A7A" font-weight="400" text-anchor="start"></text><rect x="40" y="914" width="310" height="44" rx="22.0" fill="#8A8A8A"/><text x="195.0" y="940.0" font-family="Inter, 'Segoe UI', Arial, sans-serif" font-size="12" fill="#FFFFFF" font-weight="600" text-anchor="middle">Créer mon compte</text><rect x="40" y="976" width="204" height="7" rx="3.5" fill="#D8D8D8"/><rect x="16" y="1020" width="358" height="74" rx="4" fill="#FFFFFF" stroke="#B8B8B8" stroke-width="1" stroke-dasharray="5 4"/><text x="28" y="1040" font-family="Inter, 'Segoe UI', Arial, sans-serif" font-size="10" fill="#7A7A7A" font-weight="700" text-anchor="start">NOTE</text><text x="28" y="1058" font-family="Inter, 'Segoe UI', Arial, sans-serif" font-size="11" fill="#7A7A7A" font-weight="400" text-anchor="start">Le mot de passe est refusé s'il figure dans les fuites</text><text x="28" y="1072" font-family="Inter, 'Segoe UI', Arial, sans-serif" font-size="11" fill="#7A7A7A" font-weight="400" text-anchor="start">connues. Un champ leurre invisible écarte les robots.</text><rect x="0" y="1152" width="390" height="26" rx="0" fill="#FAFAFA"/><line x1="0" y1="1152" x2="390" y2="1152" stroke="#E5E5E5" stroke-width="1"/><text x="14" y="1169" font-family="Inter, 'Segoe UI', Arial, sans-serif" font-size="10" fill="#7A7A7A" font-weight="400" text-anchor="start">pageSignUp.html   ·   Wireframe mobile 390 px</text></g>
<rect x="0.5" y="0.5" width="389" height="1177" fill="none" stroke="#D4D4D4" stroke-width="1"/>
<text x="0" y="1196" font-family="Inter, 'Segoe UI', Arial, sans-serif" font-size="12" fill="#7A7A7A">Inscription — Wireframe mobile 390 px  —  390 × 1178</text>
</svg>