<svg xmlns="http://www.w3.org/2000/svg" width="390" height="576" viewBox="0 0 390 576">
<rect width="390" height="576" fill="#FFFFFF"/>
<rect width="390" height="550" fill="#FFFFFF"/>
<g><rect x="0" y="0" width="390" height="4000" rx="0" fill="#FFFFFF"/><rect x="0" y="0" width="390" height="56" rx="0" fill="#FFFFFF" stroke="#C4C4C4" stroke-width="1"/><rect x="16" y="16" width="24" height="24" rx="4" fill="#B4B4B4"/><rect x="56" y="17" width="258" height="24" rx="12" fill="#FFFFFF" stroke="#C4C4C4" stroke-width="1"/><text x="68" y="33" font-family="Inter, 'Segoe UI', Arial, sans-serif" font-size="10" fill="#7A7A7A" font-weight="400" text-anchor="start">Rechercher…</text><rect x="322" y="17" width="24" height="24" rx="6" fill="#FFFFFF" stroke="#C4C4C4" stroke-width="1"/><rect x="354" y="17" width="24" height="24" rx="6" fill="#FFFFFF" stroke="#C4C4C4" stroke-width="1"/><rect x="16.0" y="74" width="358" height="290" rx="3" fill="#F4F4F4" stroke="#C4C4C4" stroke-width="1"/><circle cx="195.0" cy="144" r="30" fill="#EAEAEA"/><rect x="85.0" y="198" width="220" height="18" rx="9.0" fill="#B4B4B4"/><rect x="76.0" y="236" width="238" height="7" rx="3.5" fill="#D8D8D8"/><rect x="76.0" y="251" width="147" height="7" rx="3.5" fill="#D8D8D8"/><rect x="56.0" y="290" width="278.0" height="42" rx="21.0" fill="#8A8A8A"/><text x="195.0" y="315.0" font-family="Inter, 'Segoe UI', Arial, sans-serif" font-size="12" fill="#FFFFFF" font-weight="600" text-anchor="middle">Se connecter</text><rect x="0" y="404" width="390" height="120" rx="0" fill="#EAEAEA"/><rect x="28.0" y="426" width="68" height="8" rx="4.0" fill="#B4B4B4"/><rect x="28.0" y="446" width="90" height="6" rx="3.0" fill="#D8D8D8"/><rect x="28.0" y="459" width="90" height="6" rx="3.0" fill="#D8D8D8"/><rect x="28.0" y="472" width="90" height="6" rx="3.0" fill="#D8D8D8"/><rect x="195.0" y="426" width="68" height="8" rx="4.0" fill="#B4B4B4"/><rect x="195.0" y="446" width="90" height="6" rx="3.0" fill="#D8D8D8"/><rect x="195.0" y="459" width="90" height="6" rx="3.0" fill="#D8D8D8"/><rect x="195.0" y="472" width="90" height="6" rx="3.0" fill="#D8D8D8"/><rect x="0" y="524" width="390" height="26" rx="0" fill="#FAFAFA"/><line x1="0" y1="524" x2="390" y2="524" stroke="#E5E5E5" stroke-width="1"/><text x="14" y="541" font-family="Inter, 'Segoe UI', Arial, sans-serif" font-size="10" fill="#7A7A7A" font-weight="400" text-anchor="start">page_confirmationmdp.html   ·   Wireframe mobile 390 px</text></g>
<rect x="0.5" y="0.5" width="389" height="549" fill="none" stroke="#D4D4D4" stroke-width="1"/>
<text x="0" y="568" font-family="Inter, 'Segoe UI', Arial, sans-serif" font-size="12" fill="#7A7A7A">Mot de passe mis à jour — Wireframe mobile 390 px  —  390 × 550</text>
</svg>