<svg xmlns="http://www.w3.org/2000/svg" width="1800" height="1206" viewBox="0 0 1800 1206">
<rect width="1800" height="1206" fill="#FFFFFF"/>
<rect width="1800" height="1180" fill="#FFFFFF"/>
<g><rect x="0" y="0" width="1800" height="150" rx="0" fill="#FFFFFF"/><rect x="56" y="44" width="5" height="52" rx="2.5" fill="#E03B8B"/><text x="76" y="44" font-family="Inter, 'Segoe UI', Arial, sans-serif" font-size="12" fill="#E03B8B" font-weight="700" text-anchor="start" letter-spacing="1.6">CONCEPTION DES DONNÉES  ·  KINKA.FR</text><text x="76" y="80" font-family="Inter, 'Segoe UI', Arial, sans-serif" font-size="28" fill="#1a1a1a" font-weight="800" text-anchor="start">Modèle conceptuel de données</text><text x="76" y="112" font-family="Inter, 'Segoe UI', Arial, sans-serif" font-size="13" fill="#5b6472" font-weight="400" text-anchor="start">Les entités du métier et les associations qui les relient, avec leurs cardinalités. Trois associations portent leurs propres données.</text><line x1="56" y1="150" x2="1744" y2="150" stroke="#e5e7eb" stroke-width="1"/><rect x="90" y="400" width="290" height="250" rx="8" fill="#ffffff" stroke="#1a1a1a" stroke-width="1.5"/><rect x="90" y="400" width="290" height="40" rx="8" fill="#1a1a1a"/><rect x="90" y="424" width="290" height="16" rx="0" fill="#1a1a1a"/><text x="235.0" y="426" font-family="Inter, 'Segoe UI', Arial, sans-serif" font-size="13.5" fill="#FFFFFF" font-weight="800" text-anchor="middle" letter-spacing="1.2">UTILISATEUR</text><text x="106" y="462" font-family="Inter, 'Segoe UI', Arial, sans-serif" font-size="12" fill="#E03B8B" font-weight="700" text-anchor="start"># id_utilisateur</text><text x="106" y="484" font-family="Inter, 'Segoe UI', Arial, sans-serif" font-size="11.5" fill="#5b6472" font-weight="400" text-anchor="start">email</text><text x="106" y="503" font-family="Inter, 'Segoe UI', Arial, sans-serif" font-size="11.5" fill="#5b6472" font-weight="400" text-anchor="start">mot_de_passe (haché)</text><text x="106" y="522" font-family="Inter, 'Segoe UI', Arial, sans-serif" font-size="11.5" fill="#5b6472" font-weight="400" text-anchor="start">prenom, nom</text><text x="106" y="541" font-family="Inter, 'Segoe UI', Arial, sans-serif" font-size="11.5" fill="#5b6472" font-weight="400" text-anchor="start">role</text><text x="106" y="560" font-family="Inter, 'Segoe UI', Arial, sans-serif" font-size="11.5" fill="#5b6472" font-weight="400" text-anchor="start">email_verifie</text><text x="106" y="579" font-family="Inter, 'Segoe UI', Arial, sans-serif" font-size="11.5" fill="#5b6472" font-weight="400" text-anchor="start">adresse, ville, cp</text><text x="106" y="598" font-family="Inter, 'Segoe UI', Arial, sans-serif" font-size="11.5" fill="#5b6472" font-weight="400" text-anchor="start">date_inscription</text><rect x="1300" y="380" width="300" height="280" rx="8" fill="#ffffff" stroke="#1a1a1a" stroke-width="1.5"/><rect x="1300" y="380" width="300" height="40" rx="8" fill="#1a1a1a"/><rect x="1300" y="404" width="300" height="16" rx="0" fill="#1a1a1a"/><text x="1450.0" y="406" font-family="Inter, 'Segoe UI', Arial, sans-serif" font-size="13.5" fill="#FFFFFF" font-weight="800" text-anchor="middle" letter-spacing="1.2">PRODUIT</text><text x="1316" y="442" font-family="Inter, 'Segoe UI', Arial, sans-serif" font-size="12" fill="#E03B8B" font-weight="700" text-anchor="start"># id_produit</text><text x="1316" y="464" font-family="Inter, 'Segoe UI', Arial, sans-serif" font-size="11.5" fill="#5b6472" font-weight="400" text-anchor="start">titre, serie, tome</text><text x="1316" y="483" font-family="Inter, 'Segoe UI', Arial, sans-serif" font-size="11.5" fill="#5b6472" font-weight="400" text-anchor="start">auteur, dessinateur</text><text x="1316" y="502" font-family="Inter, 'Segoe UI', Arial, sans-serif" font-size="11.5" fill="#5b6472" font-weight="400" text-anchor="start">prix, prix_promo</text><text x="1316" y="521" font-family="Inter, 'Segoe UI', Arial, sans-serif" font-size="11.5" fill="#5b6472" font-weight="400" text-anchor="start">etat</text><text x="1316" y="540" font-family="Inter, 'Segoe UI', Arial, sans-serif" font-size="11.5" fill="#5b6472" font-weight="400" text-anchor="start">stock</text><text x="1316" y="559" font-family="Inter, 'Segoe UI', Arial, sans-serif" font-size="11.5" fill="#5b6472" font-weight="400" text-anchor="start">categorie</text><text x="1316" y="578" font-family="Inter, 'Segoe UI', Arial, sans-serif" font-size="11.5" fill="#5b6472" font-weight="400" text-anchor="start">image</text><text x="1316" y="597" font-family="Inter, 'Segoe UI', Arial, sans-serif" font-size="11.5" fill="#5b6472" font-weight="400" text-anchor="start">nouveaute, promo…</text><rect x="660" y="900" width="300" height="200" rx="8" fill="#ffffff" stroke="#1a1a1a" stroke-width="1.5"/><rect x="660" y="900" width="300" height="40" rx="8" fill="#1a1a1a"/><rect x="660" y="924" width="300" height="16" rx="0" fill="#1a1a1a"/><text x="810.0" y="926" font-family="Inter, 'Segoe UI', Arial, sans-serif" font-size="13.5" fill="#FFFFFF" font-weight="800" text-anchor="middle" letter-spacing="1.2">COMMANDE</text><text x="676" y="962" font-family="Inter, 'Segoe UI', Arial, sans-serif" font-size="12" fill="#E03B8B" font-weight="700" text-anchor="start"># id_commande</text><text x="676" y="984" font-family="Inter, 'Segoe UI', Arial, sans-serif" font-size="11.5" fill="#5b6472" font-weight="400" text-anchor="start">date</text><text x="676" y="1003" font-family="Inter, 'Segoe UI', Arial, sans-serif" font-size="11.5" fill="#5b6472" font-weight="400" text-anchor="start">statut</text><text x="676" y="1022" font-family="Inter, 'Segoe UI', Arial, sans-serif" font-size="11.5" fill="#5b6472" font-weight="400" text-anchor="start">total, frais_livraison</text><text x="676" y="1041" font-family="Inter, 'Segoe UI', Arial, sans-serif" font-size="11.5" fill="#5b6472" font-weight="400" text-anchor="start">adresse_livraison</text><text x="676" y="1060" font-family="Inter, 'Segoe UI', Arial, sans-serif" font-size="11.5" fill="#5b6472" font-weight="400" text-anchor="start">numero_suivi</text><rect x="1300" y="130" width="300" height="170" rx="8" fill="#ffffff" stroke="#1a1a1a" stroke-width="1.5"/><rect x="1300" y="130" width="300" height="40" rx="8" fill="#1a1a1a"/><rect x="1300" y="154" width="300" height="16" rx="0" fill="#1a1a1a"/><text x="1450.0" y="156" font-family="Inter, 'Segoe UI', Arial, sans-serif" font-size="13.5" fill="#FFFFFF" font-weight="800" text-anchor="middle" letter-spacing="1.2">ÉDITEUR</text><text x="1316" y="192" font-family="Inter, 'Segoe UI', Arial, sans-serif" font-size="12" fill="#E03B8B" font-weight="700" text-anchor="start"># id_editeur</text><text x="1316" y="214" font-family="Inter, 'Segoe UI', Arial, sans-serif" font-size="11.5" fill="#5b6472" font-weight="400" text-anchor="start">nom, slug</text><text x="1316" y="233" font-family="Inter, 'Segoe UI', Arial, sans-serif" font-size="11.5" fill="#5b6472" font-weight="400" text-anchor="start">logo, couleur</text><text x="1316" y="252" font-family="Inter, 'Segoe UI', Arial, sans-serif" font-size="11.5" fill="#5b6472" font-weight="400" text-anchor="start">date_fondation</text><text x="1316" y="271" font-family="Inter, 'Segoe UI', Arial, sans-serif" font-size="11.5" fill="#5b6472" font-weight="400" text-anchor="start">site_web</text><rect x="1300" y="760" width="300" height="170" rx="8" fill="#ffffff" stroke="#1a1a1a" stroke-width="1.5"/><rect x="1300" y="760" width="300" height="40" rx="8" fill="#1a1a1a"/><rect x="1300" y="784" width="300" height="16" rx="0" fill="#1a1a1a"/><text x="1450.0" y="786" font-family="Inter, 'Segoe UI', Arial, sans-serif" font-size="13.5" fill="#FFFFFF" font-weight="800" text-anchor="middle" letter-spacing="1.2">SÉRIE</text><text x="1316" y="822" font-family="Inter, 'Segoe UI', Arial, sans-serif" font-size="12" fill="#E03B8B" font-weight="700" text-anchor="start"># id_serie</text><text x="1316" y="844" font-family="Inter, 'Segoe UI', Arial, sans-serif" font-size="11.5" fill="#5b6472" font-weight="400" text-anchor="start">nom</text><text x="1316" y="863" font-family="Inter, 'Segoe UI', Arial, sans-serif" font-size="11.5" fill="#5b6472" font-weight="400" text-anchor="start">auteur</text><text x="1316" y="882" font-family="Inter, 'Segoe UI', Arial, sans-serif" font-size="11.5" fill="#5b6472" font-weight="400" text-anchor="start">nb_tomes</text><text x="1316" y="901" font-family="Inter, 'Segoe UI', Arial, sans-serif" font-size="11.5" fill="#5b6472" font-weight="400" text-anchor="start">terminee</text><rect x="90" y="130" width="290" height="170" rx="8" fill="#ffffff" stroke="#1a1a1a" stroke-width="1.5"/><rect x="90" y="130" width="290" height="40" rx="8" fill="#1a1a1a"/><rect x="90" y="154" width="290" height="16" rx="0" fill="#1a1a1a"/><text x="235.0" y="156" font-family="Inter, 'Segoe UI', Arial, sans-serif" font-size="13.5" fill="#FFFFFF" font-weight="800" text-anchor="middle" letter-spacing="1.2">ANNONCE</text><text x="106" y="192" font-family="Inter, 'Segoe UI', Arial, sans-serif" font-size="12" fill="#E03B8B" font-weight="700" text-anchor="start"># id_annonce</text><text x="106" y="214" font-family="Inter, 'Segoe UI', Arial, sans-serif" font-size="11.5" fill="#5b6472" font-weight="400" text-anchor="start">titre, description</text><text x="106" y="233" font-family="Inter, 'Segoe UI', Arial, sans-serif" font-size="11.5" fill="#5b6472" font-weight="400" text-anchor="start">prix, etat</text><text x="106" y="252" font-family="Inter, 'Segoe UI', Arial, sans-serif" font-size="11.5" fill="#5b6472" font-weight="400" text-anchor="start">photos</text><text x="106" y="271" font-family="Inter, 'Segoe UI', Arial, sans-serif" font-size="11.5" fill="#5b6472" font-weight="400" text-anchor="start">statut</text><polygon points="840,262 948,300 840,338 732,300" fill="#fdeef5" stroke="#E03B8B" stroke-width="1.5"/><text x="840" y="296" font-family="Inter, 'Segoe UI', Arial, sans-serif" font-size="10.5" fill="#E03B8B" font-weight="800" text-anchor="middle" letter-spacing="1.1">METTRE AU PANIER</text><text x="840" y="312" font-family="Inter, 'Segoe UI', Arial, sans-serif" font-size="9" fill="#5b6472" font-weight="400" text-anchor="middle">quantité</text><line x1="380" y1="460" x2="732" y2="310" stroke="#6b7280" stroke-width="1.5"/><rect x="475.64" y="401.0" width="34" height="22" rx="11.0" fill="#FFFFFF" stroke="#e5e7eb" stroke-width="1"/><text x="492.64" y="417.0" font-family="Inter, 'Segoe UI', Arial, sans-serif" font-size="10" fill="#1a1a1a" font-weight="700" text-anchor="middle">0,n</text><line x1="1300" y1="430" x2="948" y2="310" stroke="#6b7280" stroke-width="1.5"/><rect x="1170.36" y="380.6" width="34" height="22" rx="11.0" fill="#FFFFFF" stroke="#e5e7eb" stroke-width="1"/><text x="1187.36" y="396.6" font-family="Inter, 'Segoe UI', Arial, sans-serif" font-size="10" fill="#1a1a1a" font-weight="700" text-anchor="middle">0,n</text><polygon points="840,412 948,450 840,488 732,450" fill="#fdeef5" stroke="#E03B8B" stroke-width="1.5"/><text x="840" y="450" font-family="Inter, 'Segoe UI', Arial, sans-serif" font-size="10.5" fill="#E03B8B" font-weight="800" text-anchor="middle" letter-spacing="1.1">METTRE EN FAVORI</text><line x1="380" y1="505" x2="732" y2="452" stroke="#6b7280" stroke-width="1.5"/><rect x="475.64" y="477.04" width="34" height="22" rx="11.0" fill="#FFFFFF" stroke="#e5e7eb" stroke-width="1"/><text x="492.64" y="493.04" font-family="Inter, 'Segoe UI', Arial, sans-serif" font-size="10" fill="#1a1a1a" font-weight="700" text-anchor="middle">0,n</text><line x1="1300" y1="505" x2="948" y2="452" stroke="#6b7280" stroke-width="1.5"/><rect x="1170.36" y="477.04" width="34" height="22" rx="11.0" fill="#FFFFFF" stroke="#e5e7eb" stroke-width="1"/><text x="1187.36" y="493.04" font-family="Inter, 'Segoe UI', Arial, sans-serif" font-size="10" fill="#1a1a1a" font-weight="700" text-anchor="middle">0,n</text><polygon points="840,562 948,600 840,638 732,600" fill="#fdeef5" stroke="#E03B8B" stroke-width="1.5"/><text x="840" y="596" font-family="Inter, 'Segoe UI', Arial, sans-serif" font-size="10.5" fill="#E03B8B" font-weight="800" text-anchor="middle" letter-spacing="1.1">DÉPOSER UN AVIS</text><text x="840" y="612" font-family="Inter, 'Segoe UI', Arial, sans-serif" font-size="9" fill="#5b6472" font-weight="400" text-anchor="middle">note, commentaire</text><line x1="380" y1="570" x2="732" y2="596" stroke="#6b7280" stroke-width="1.5"/><rect x="475.64" y="567.32" width="34" height="22" rx="11.0" fill="#FFFFFF" stroke="#e5e7eb" stroke-width="1"/><text x="492.64" y="583.32" font-family="Inter, 'Segoe UI', Arial, sans-serif" font-size="10" fill="#1a1a1a" font-weight="700" text-anchor="middle">0,n</text><line x1="1300" y1="610" x2="948" y2="600" stroke="#6b7280" stroke-width="1.5"/><rect x="1170.36" y="595.8" width="34" height="22" rx="11.0" fill="#FFFFFF" stroke="#e5e7eb" stroke-width="1"/><text x="1187.36" y="611.8" font-family="Inter, 'Segoe UI', Arial, sans-serif" font-size="10" fill="#1a1a1a" font-weight="700" text-anchor="middle">0,n</text><polygon points="400,762 488,800 400,838 312,800" fill="#fdeef5" stroke="#E03B8B" stroke-width="1.5"/><text x="400" y="800" font-family="Inter, 'Segoe UI', Arial, sans-serif" font-size="10.5" fill="#E03B8B" font-weight="800" text-anchor="middle" letter-spacing="1.1">PASSER</text><line x1="235" y1="650" x2="390" y2="764" stroke="#6b7280" stroke-width="1.5"/><rect x="267.6" y="675.48" width="34" height="22" rx="11.0" fill="#FFFFFF" stroke="#e5e7eb" stroke-width="1"/><text x="284.6" y="691.48" font-family="Inter, 'Segoe UI', Arial, sans-serif" font-size="10" fill="#1a1a1a" font-weight="700" text-anchor="middle">0,n</text><line x1="660" y1="970" x2="488" y2="812" stroke="#6b7280" stroke-width="1.5"/><rect x="587.96" y="908.44" width="34" height="22" rx="11.0" fill="#FFFFFF" stroke="#e5e7eb" stroke-width="1"/><text x="604.96" y="924.44" font-family="Inter, 'Segoe UI', Arial, sans-serif" font-size="10" fill="#1a1a1a" font-weight="700" text-anchor="middle">1,1</text><polygon points="1130,772 1234,810 1130,848 1026,810" fill="#fdeef5" stroke="#E03B8B" stroke-width="1.5"/><text x="1130" y="806" font-family="Inter, 'Segoe UI', Arial, sans-serif" font-size="10.5" fill="#E03B8B" font-weight="800" text-anchor="middle" letter-spacing="1.1">CONTENIR</text><text x="1130" y="822" font-family="Inter, 'Segoe UI', Arial, sans-serif" font-size="9" fill="#5b6472" font-weight="400" text-anchor="middle">titre, prix, quantité</text><line x1="960" y1="980" x2="1040" y2="838" stroke="#6b7280" stroke-width="1.5"/><rect x="968.6" y="923.56" width="34" height="22" rx="11.0" fill="#FFFFFF" stroke="#e5e7eb" stroke-width="1"/><text x="985.6" y="939.56" font-family="Inter, 'Segoe UI', Arial, sans-serif" font-size="10" fill="#1a1a1a" font-weight="700" text-anchor="middle">1,n</text><line x1="1380" y1="660" x2="1160" y2="774" stroke="#6b7280" stroke-width="1.5"/><rect x="1292.6" y="685.48" width="34" height="22" rx="11.0" fill="#FFFFFF" stroke="#e5e7eb" stroke-width="1"/><text x="1309.6" y="701.48" font-family="Inter, 'Segoe UI', Arial, sans-serif" font-size="10" fill="#1a1a1a" font-weight="700" text-anchor="middle">0,n</text><polygon points="1660,302 1722,340 1660,378 1598,340" fill="#fdeef5" stroke="#E03B8B" stroke-width="1.5"/><text x="1660" y="340" font-family="Inter, 'Segoe UI', Arial, sans-serif" font-size="10.5" fill="#E03B8B" font-weight="800" text-anchor="middle" letter-spacing="1.1">ÉDITER</text><line x1="1600" y1="215" x2="1660" y2="304" stroke="#6b7280" stroke-width="1.5"/><rect x="1602.2" y="232.48" width="34" height="22" rx="11.0" fill="#FFFFFF" stroke="#e5e7eb" stroke-width="1"/><text x="1619.2" y="248.48" font-family="Inter, 'Segoe UI', Arial, sans-serif" font-size="10" fill="#1a1a1a" font-weight="700" text-anchor="middle">0,n</text><line x1="1600" y1="430" x2="1660" y2="378" stroke="#6b7280" stroke-width="1.5"/><rect x="1602.2" y="402.36" width="34" height="22" rx="11.0" fill="#FFFFFF" stroke="#e5e7eb" stroke-width="1"/><text x="1619.2" y="418.36" font-family="Inter, 'Segoe UI', Arial, sans-serif" font-size="10" fill="#1a1a1a" font-weight="700" text-anchor="middle">1,1</text><polygon points="1660,662 1722,700 1660,738 1598,700" fill="#fdeef5" stroke="#E03B8B" stroke-width="1.5"/><text x="1660" y="700" font-family="Inter, 'Segoe UI', Arial, sans-serif" font-size="10.5" fill="#E03B8B" font-weight="800" text-anchor="middle" letter-spacing="1.1">APPARTENIR</text><line x1="1600" y1="620" x2="1660" y2="664" stroke="#6b7280" stroke-width="1.5"/><rect x="1602.2" y="623.08" width="34" height="22" rx="11.0" fill="#FFFFFF" stroke="#e5e7eb" stroke-width="1"/><text x="1619.2" y="639.08" font-family="Inter, 'Segoe UI', Arial, sans-serif" font-size="10" fill="#1a1a1a" font-weight="700" text-anchor="middle">0,1</text><line x1="1600" y1="800" x2="1660" y2="738" stroke="#6b7280" stroke-width="1.5"/><rect x="1602.2" y="769.16" width="34" height="22" rx="11.0" fill="#FFFFFF" stroke="#e5e7eb" stroke-width="1"/><text x="1619.2" y="785.16" font-family="Inter, 'Segoe UI', Arial, sans-serif" font-size="10" fill="#1a1a1a" font-weight="700" text-anchor="middle">0,n</text><polygon points="235,302 323,340 235,378 147,340" fill="#fdeef5" stroke="#E03B8B" stroke-width="1.5"/><text x="235" y="340" font-family="Inter, 'Segoe UI', Arial, sans-serif" font-size="10.5" fill="#E03B8B" font-weight="800" text-anchor="middle" letter-spacing="1.1">PUBLIER</text><line x1="235" y1="300" x2="235" y2="304" stroke="#6b7280" stroke-width="1.5"/><rect x="218.0" y="290.28" width="34" height="22" rx="11.0" fill="#FFFFFF" stroke="#e5e7eb" stroke-width="1"/><text x="235.0" y="306.28" font-family="Inter, 'Segoe UI', Arial, sans-serif" font-size="10" fill="#1a1a1a" font-weight="700" text-anchor="middle">0,n</text><line x1="235" y1="400" x2="235" y2="376" stroke="#6b7280" stroke-width="1.5"/><rect x="218.0" y="381.32" width="34" height="22" rx="11.0" fill="#FFFFFF" stroke="#e5e7eb" stroke-width="1"/><text x="235.0" y="397.32" font-family="Inter, 'Segoe UI', Arial, sans-serif" font-size="10" fill="#1a1a1a" font-weight="700" text-anchor="middle">1,1</text><rect x="56" y="1010" width="560" height="130" rx="12" fill="#ffffff" stroke="#e5e7eb" stroke-width="1"/><rect x="56" y="1010" width="5" height="130" rx="2.5" fill="#E03B8B"/><text x="84" y="1046" font-family="Inter, 'Segoe UI', Arial, sans-serif" font-size="14" fill="#1a1a1a" font-weight="700" text-anchor="start">Les associations porteuses</text><text x="84" y="1070" font-family="Inter, 'Segoe UI', Arial, sans-serif" font-size="12" fill="#5b6472" font-weight="400" text-anchor="start">Trois associations portent leurs propres données et deviendront des tables à part</text><text x="84" y="1087" font-family="Inter, 'Segoe UI', Arial, sans-serif" font-size="12" fill="#5b6472" font-weight="400" text-anchor="start">entière : le panier porte une quantité, l'avis une note et un commentaire, et la</text><text x="84" y="1104" font-family="Inter, 'Segoe UI', Arial, sans-serif" font-size="12" fill="#5b6472" font-weight="400" text-anchor="start">ligne de commande recopie titre et prix.</text></g>
<rect x="0.5" y="0.5" width="1799" height="1179" fill="none" stroke="#D4D4D4" stroke-width="1"/>
<text x="0" y="1198" font-family="Inter, 'Segoe UI', Arial, sans-serif" font-size="12" fill="#7A7A7A">Conception des données — Modèle conceptuel de données  —  1800 × 1180</text>
</svg>