<svg xmlns="http://www.w3.org/2000/svg" width="1440" height="1352" viewBox="0 0 1440 1352">
<rect width="1440" height="1352" fill="#FFFFFF"/>
<rect width="1440" height="1326" fill="#FFFFFF"/>
<g><rect x="0" y="0" width="1440" height="4000" rx="0" fill="#FFFFFF"/><rect x="0" y="0" width="1440" height="62" rx="0" fill="#FFFFFF" stroke="#C4C4C4" stroke-width="1"/><rect x="28" y="20" width="92" height="22" rx="3" fill="#B4B4B4"/><text x="74" y="35" font-family="Inter, 'Segoe UI', Arial, sans-serif" font-size="11" fill="#FFFFFF" font-weight="700" text-anchor="middle">LOGO</text><rect x="150" y="18" width="300" height="26" rx="13" fill="#FFFFFF" stroke="#C4C4C4" stroke-width="1"/><text x="166" y="35" font-family="Inter, 'Segoe UI', Arial, sans-serif" font-size="11" fill="#7A7A7A" font-weight="400" text-anchor="start">Rechercher un manga, un auteur…</text><text x="490" y="36" font-family="Inter, 'Segoe UI', Arial, sans-serif" font-size="12" fill="#4A4A4A" font-weight="400" text-anchor="start">Accueil</text><text x="573" y="36" font-family="Inter, 'Segoe UI', Arial, sans-serif" font-size="12" fill="#4A4A4A" font-weight="400" text-anchor="start">Catalogue</text><text x="670" y="36" font-family="Inter, 'Segoe UI', Arial, sans-serif" font-size="12" fill="#4A4A4A" font-weight="400" text-anchor="start">Promotions</text><text x="774" y="36" font-family="Inter, 'Segoe UI', Arial, sans-serif" font-size="12" fill="#4A4A4A" font-weight="400" text-anchor="start">Annonces</text><rect x="1190" y="18" width="32" height="26" rx="6" fill="#FFFFFF" stroke="#C4C4C4" stroke-width="1"/><text x="1206" y="36" font-family="Inter, 'Segoe UI', Arial, sans-serif" font-size="11" fill="#7A7A7A" font-weight="400" text-anchor="middle">♡</text><rect x="1232" y="18" width="32" height="26" rx="6" fill="#FFFFFF" stroke="#C4C4C4" stroke-width="1"/><text x="1248" y="36" font-family="Inter, 'Segoe UI', Arial, sans-serif" font-size="11" fill="#7A7A7A" font-weight="400" text-anchor="middle">☾</text><rect x="1274" y="18" width="32" height="26" rx="6" fill="#FFFFFF" stroke="#C4C4C4" stroke-width="1"/><text x="1290" y="36" font-family="Inter, 'Segoe UI', Arial, sans-serif" font-size="11" fill="#7A7A7A" font-weight="400" text-anchor="middle">EN</text><rect x="1322" y="17" width="90" height="28" rx="14.0" fill="#8A8A8A"/><text x="1367.0" y="35.0" font-family="Inter, 'Segoe UI', Arial, sans-serif" font-size="12" fill="#FFFFFF" font-weight="600" text-anchor="middle">Connexion</text><rect x="28" y="90" width="232.20000000000002" height="7" rx="3.5" fill="#D8D8D8"/><rect x="28" y="110" width="572.88" height="380" rx="3" fill="#E4E4E4" stroke="#C4C4C4" stroke-width="1"/><path d="M28,110 L600.88,490 M600.88,110 L28,490" stroke="#D0D0D0" stroke-width="1" fill="none"/><text x="314.44" y="304.0" font-family="Inter, 'Segoe UI', Arial, sans-serif" font-size="11" fill="#7A7A7A" font-weight="400" text-anchor="middle">couverture 2:3 + vignettes</text><rect x="58" y="340" width="280" height="22" rx="11.0" fill="#B4B4B4"/><rect x="58" y="380" width="512.88" height="7" rx="3.5" fill="#D8D8D8"/><rect x="58" y="395" width="317" height="7" rx="3.5" fill="#D8D8D8"/><rect x="620.88" y="110" width="791.12" height="190" rx="3" fill="#F4F4F4" stroke="#C4C4C4" stroke-width="1"/><rect x="644.88" y="134" width="130" height="142" rx="3" fill="#E4E4E4" stroke="#C4C4C4" stroke-width="1"/><path d="M644.88,134 L774.88,276 M774.88,134 L644.88,276" stroke="#D0D0D0" stroke-width="1" fill="none"/><text x="709.88" y="209.0" font-family="Inter, 'Segoe UI', Arial, sans-serif" font-size="11" fill="#7A7A7A" font-weight="400" text-anchor="middle">portrait</text><rect x="798.88" y="150" width="220" height="20" rx="10.0" fill="#B4B4B4"/><rect x="798.88" y="184" width="150" height="8" rx="4.0" fill="#D8D8D8"/><rect x="798.88" y="208" width="560" height="7" rx="3.5" fill="#D8D8D8"/><rect x="798.88" y="223" width="560" height="7" rx="3.5" fill="#D8D8D8"/><rect x="798.88" y="238" width="347" height="7" rx="3.5" fill="#D8D8D8"/><rect x="798.88" y="252" width="40" height="14" rx="7.0" fill="#B4B4B4"/><rect x="798.88" y="272" width="66" height="7" rx="3.5" fill="#D8D8D8"/><rect x="918.88" y="252" width="40" height="14" rx="7.0" fill="#B4B4B4"/><rect x="918.88" y="272" width="66" height="7" rx="3.5" fill="#D8D8D8"/><rect x="1038.88" y="252" width="40" height="14" rx="7.0" fill="#B4B4B4"/><rect x="1038.88" y="272" width="66" height="7" rx="3.5" fill="#D8D8D8"/><rect x="620.88" y="324" width="385.56" height="64" rx="3" fill="#F4F4F4" stroke="#C4C4C4" stroke-width="1"/><circle cx="644.88" cy="356.0" r="9" fill="#B4B4B4"/><rect x="662.88" y="352.0" width="120" height="8" rx="4.0" fill="#D8D8D8"/><rect x="1026.44" y="324" width="385.56" height="64" rx="3" fill="#F4F4F4" stroke="#C4C4C4" stroke-width="1"/><circle cx="1050.44" cy="356.0" r="9" fill="#B4B4B4"/><rect x="1068.44" y="352.0" width="120" height="8" rx="4.0" fill="#D8D8D8"/><rect x="620.88" y="416" width="110" height="7" rx="3.5" fill="#D8D8D8"/><rect x="620.88" y="430" width="791.12" height="36" rx="4" fill="#FFFFFF" stroke="#C4C4C4" stroke-width="1"/><text x="630.88" y="452.0" font-family="Inter, 'Segoe UI', Arial, sans-serif" font-size="12" fill="#7A7A7A" font-weight="400" text-anchor="start"></text><rect x="620.88" y="490" width="791.12" height="44" rx="22.0" fill="#8A8A8A"/><text x="1016.44" y="516.0" font-family="Inter, 'Segoe UI', Arial, sans-serif" font-size="12" fill="#FFFFFF" font-weight="600" text-anchor="middle">Ajouter au panier</text><rect x="620.88" y="552" width="114" height="7" rx="3.5" fill="#D8D8D8"/><rect x="620.88" y="594" width="791.12" height="60" rx="4" fill="#FFFFFF" stroke="#B8B8B8" stroke-width="1" stroke-dasharray="5 4"/><text x="632.88" y="614" font-family="Inter, 'Segoe UI', Arial, sans-serif" font-size="10" fill="#7A7A7A" font-weight="700" text-anchor="start">NOTE</text><text x="632.88" y="632" font-family="Inter, 'Segoe UI', Arial, sans-serif" font-size="11" fill="#7A7A7A" font-weight="400" text-anchor="start">Le stock est affiché en nombre réel, pas en « disponible » : le client doit savoir s'il reste 1 ou 40 exemplaires.</text><rect x="40.0" y="686" width="421.3333333333333" height="9" rx="4.5" fill="#B4B4B4"/><rect x="28.0" y="706" width="461.3333333333333" height="3" rx="1.5" fill="#8A8A8A"/><rect x="501.3333333333333" y="686" width="421.3333333333333" height="9" rx="4.5" fill="#D8D8D8"/><rect x="962.6666666666666" y="686" width="421.3333333333333" height="9" rx="4.5" fill="#D8D8D8"/><line x1="28" y1="708" x2="1412" y2="708" stroke="#C4C4C4" stroke-width="1"/><rect x="28" y="730" width="1384" height="180" rx="3" fill="#F4F4F4" stroke="#C4C4C4" stroke-width="1"/><rect x="52" y="756" width="1336" height="7" rx="3.5" fill="#D8D8D8"/><rect x="52" y="771" width="1336" height="7" rx="3.5" fill="#D8D8D8"/><rect x="52" y="786" width="828" height="7" rx="3.5" fill="#D8D8D8"/><rect x="52" y="817" width="1336" height="7" rx="3.5" fill="#D8D8D8"/><rect x="52" y="832" width="1336" height="7" rx="3.5" fill="#D8D8D8"/><rect x="52" y="847" width="828" height="7" rx="3.5" fill="#D8D8D8"/><text x="28" y="948" font-family="Inter, 'Segoe UI', Arial, sans-serif" font-size="16.0" fill="#4A4A4A" font-weight="700" text-anchor="start">Dans la même série</text><rect x="28.0" y="962" width="260.8" height="200" rx="3" fill="#F4F4F4" stroke="#C4C4C4" stroke-width="1"/><rect x="38.0" y="972" width="240.8" height="134" rx="3" fill="#E4E4E4" stroke="#C4C4C4" stroke-width="1"/><path d="M38.0,972 L278.8,1106 M278.8,972 L38.0,1106" stroke="#D0D0D0" stroke-width="1" fill="none"/><text x="158.4" y="1043.0" font-family="Inter, 'Segoe UI', Arial, sans-serif" font-size="11" fill="#7A7A7A" font-weight="400" text-anchor="middle">2:3</text><rect x="38.0" y="1116" width="214.8" height="8" rx="4.0" fill="#B4B4B4"/><rect x="38.0" y="1134" width="50" height="9" rx="4.5" fill="#B4B4B4"/><rect x="308.8" y="962" width="260.8" height="200" rx="3" fill="#F4F4F4" stroke="#C4C4C4" stroke-width="1"/><rect x="318.8" y="972" width="240.8" height="134" rx="3" fill="#E4E4E4" stroke="#C4C4C4" stroke-width="1"/><path d="M318.8,972 L559.6,1106 M559.6,972 L318.8,1106" stroke="#D0D0D0" stroke-width="1" fill="none"/><text x="439.20000000000005" y="1043.0" font-family="Inter, 'Segoe UI', Arial, sans-serif" font-size="11" fill="#7A7A7A" font-weight="400" text-anchor="middle">2:3</text><rect x="318.8" y="1116" width="214.8" height="8" rx="4.0" fill="#B4B4B4"/><rect x="318.8" y="1134" width="50" height="9" rx="4.5" fill="#B4B4B4"/><rect x="589.6" y="962" width="260.8" height="200" rx="3" fill="#F4F4F4" stroke="#C4C4C4" stroke-width="1"/><rect x="599.6" y="972" width="240.8" height="134" rx="3" fill="#E4E4E4" stroke="#C4C4C4" stroke-width="1"/><path d="M599.6,972 L840.4000000000001,1106 M840.4000000000001,972 L599.6,1106" stroke="#D0D0D0" stroke-width="1" fill="none"/><text x="720.0" y="1043.0" font-family="Inter, 'Segoe UI', Arial, sans-serif" font-size="11" fill="#7A7A7A" font-weight="400" text-anchor="middle">2:3</text><rect x="599.6" y="1116" width="214.8" height="8" rx="4.0" fill="#B4B4B4"/><rect x="599.6" y="1134" width="50" height="9" rx="4.5" fill="#B4B4B4"/><rect x="870.4000000000001" y="962" width="260.8" height="200" rx="3" fill="#F4F4F4" stroke="#C4C4C4" stroke-width="1"/><rect x="880.4000000000001" y="972" width="240.8" height="134" rx="3" fill="#E4E4E4" stroke="#C4C4C4" stroke-width="1"/><path d="M880.4000000000001,972 L1121.2,1106 M1121.2,972 L880.4000000000001,1106" stroke="#D0D0D0" stroke-width="1" fill="none"/><text x="1000.8000000000001" y="1043.0" font-family="Inter, 'Segoe UI', Arial, sans-serif" font-size="11" fill="#7A7A7A" font-weight="400" text-anchor="middle">2:3</text><rect x="880.4000000000001" y="1116" width="214.8" height="8" rx="4.0" fill="#B4B4B4"/><rect x="880.4000000000001" y="1134" width="50" height="9" rx="4.5" fill="#B4B4B4"/><rect x="1151.2" y="962" width="260.8" height="200" rx="3" fill="#F4F4F4" stroke="#C4C4C4" stroke-width="1"/><rect x="1161.2" y="972" width="240.8" height="134" rx="3" fill="#E4E4E4" stroke="#C4C4C4" stroke-width="1"/><path d="M1161.2,972 L1402.0,1106 M1402.0,972 L1161.2,1106" stroke="#D0D0D0" stroke-width="1" fill="none"/><text x="1281.6000000000001" y="1043.0" font-family="Inter, 'Segoe UI', Arial, sans-serif" font-size="11" fill="#7A7A7A" font-weight="400" text-anchor="middle">2:3</text><rect x="1161.2" y="1116" width="214.8" height="8" rx="4.0" fill="#B4B4B4"/><rect x="1161.2" y="1134" width="50" height="9" rx="4.5" fill="#B4B4B4"/><rect x="1336" y="916" width="30" height="30" rx="15.0" fill="#FFFFFF" stroke="#C4C4C4" stroke-width="1"/><text x="1351" y="936" font-family="Inter, 'Segoe UI', Arial, sans-serif" font-size="14" fill="#7A7A7A" font-weight="400" text-anchor="middle">‹</text><rect x="1374" y="916" width="30" height="30" rx="15.0" fill="#FFFFFF" stroke="#C4C4C4" stroke-width="1"/><text x="1389" y="936" font-family="Inter, 'Segoe UI', Arial, sans-serif" font-size="14" fill="#7A7A7A" font-weight="400" text-anchor="middle">›</text><rect x="0" y="1204" width="1440" height="96" rx="0" fill="#EAEAEA"/><rect x="28.0" y="1226" width="68" height="8" rx="4.0" fill="#B4B4B4"/><rect x="28.0" y="1246" width="90" height="6" rx="3.0" fill="#D8D8D8"/><rect x="28.0" y="1259" width="90" height="6" rx="3.0" fill="#D8D8D8"/><rect x="28.0" y="1272" width="90" height="6" rx="3.0" fill="#D8D8D8"/><rect x="374.0" y="1226" width="68" height="8" rx="4.0" fill="#B4B4B4"/><rect x="374.0" y="1246" width="90" height="6" rx="3.0" fill="#D8D8D8"/><rect x="374.0" y="1259" width="90" height="6" rx="3.0" fill="#D8D8D8"/><rect x="374.0" y="1272" width="90" height="6" rx="3.0" fill="#D8D8D8"/><rect x="720.0" y="1226" width="68" height="8" rx="4.0" fill="#B4B4B4"/><rect x="720.0" y="1246" width="90" height="6" rx="3.0" fill="#D8D8D8"/><rect x="720.0" y="1259" width="90" height="6" rx="3.0" fill="#D8D8D8"/><rect x="720.0" y="1272" width="90" height="6" rx="3.0" fill="#D8D8D8"/><rect x="1066.0" y="1226" width="68" height="8" rx="4.0" fill="#B4B4B4"/><rect x="1066.0" y="1246" width="90" height="6" rx="3.0" fill="#D8D8D8"/><rect x="1066.0" y="1259" width="90" height="6" rx="3.0" fill="#D8D8D8"/><rect x="1066.0" y="1272" width="90" height="6" rx="3.0" fill="#D8D8D8"/><rect x="0" y="1300" width="1440" height="26" rx="0" fill="#FAFAFA"/><line x1="0" y1="1300" x2="1440" y2="1300" stroke="#E5E5E5" stroke-width="1"/><text x="28" y="1317" font-family="Inter, 'Segoe UI', Arial, sans-serif" font-size="10" fill="#7A7A7A" font-weight="400" text-anchor="start">page_detail_produit.html   ·   Wireframe bureau 1440 px</text></g>
<rect x="0.5" y="0.5" width="1439" height="1325" fill="none" stroke="#D4D4D4" stroke-width="1"/>
<text x="0" y="1344" font-family="Inter, 'Segoe UI', Arial, sans-serif" font-size="12" fill="#7A7A7A">Fiche produit — Wireframe bureau 1440 px  —  1440 × 1326</text>
</svg>