<svg xmlns="http://www.w3.org/2000/svg" width="1440" height="1232" viewBox="0 0 1440 1232">
<rect width="1440" height="1232" fill="#FFFFFF"/>
<rect width="1440" height="1206" fill="#FFFFFF"/>
<g><rect x="0" y="0" width="1440" height="4000" rx="0" fill="#FFFFFF"/><rect x="0" y="0" width="1440" height="62" rx="0" fill="#FFFFFF" stroke="#C4C4C4" stroke-width="1"/><rect x="28" y="20" width="92" height="22" rx="3" fill="#B4B4B4"/><text x="74" y="35" font-family="Inter, 'Segoe UI', Arial, sans-serif" font-size="11" fill="#FFFFFF" font-weight="700" text-anchor="middle">LOGO</text><rect x="150" y="18" width="300" height="26" rx="13" fill="#FFFFFF" stroke="#C4C4C4" stroke-width="1"/><text x="166" y="35" font-family="Inter, 'Segoe UI', Arial, sans-serif" font-size="11" fill="#7A7A7A" font-weight="400" text-anchor="start">Rechercher un manga, un auteur…</text><text x="490" y="36" font-family="Inter, 'Segoe UI', Arial, sans-serif" font-size="12" fill="#4A4A4A" font-weight="400" text-anchor="start">Accueil</text><text x="573" y="36" font-family="Inter, 'Segoe UI', Arial, sans-serif" font-size="12" fill="#4A4A4A" font-weight="400" text-anchor="start">Catalogue</text><text x="670" y="36" font-family="Inter, 'Segoe UI', Arial, sans-serif" font-size="12" fill="#4A4A4A" font-weight="400" text-anchor="start">Promotions</text><text x="774" y="36" font-family="Inter, 'Segoe UI', Arial, sans-serif" font-size="12" fill="#4A4A4A" font-weight="400" text-anchor="start">Annonces</text><rect x="1190" y="18" width="32" height="26" rx="6" fill="#FFFFFF" stroke="#C4C4C4" stroke-width="1"/><text x="1206" y="36" font-family="Inter, 'Segoe UI', Arial, sans-serif" font-size="11" fill="#7A7A7A" font-weight="400" text-anchor="middle">♡</text><rect x="1232" y="18" width="32" height="26" rx="6" fill="#FFFFFF" stroke="#C4C4C4" stroke-width="1"/><text x="1248" y="36" font-family="Inter, 'Segoe UI', Arial, sans-serif" font-size="11" fill="#7A7A7A" font-weight="400" text-anchor="middle">☾</text><rect x="1274" y="18" width="32" height="26" rx="6" fill="#FFFFFF" stroke="#C4C4C4" stroke-width="1"/><text x="1290" y="36" font-family="Inter, 'Segoe UI', Arial, sans-serif" font-size="11" fill="#7A7A7A" font-weight="400" text-anchor="middle">EN</text><rect x="1322" y="17" width="90" height="28" rx="14.0" fill="#8A8A8A"/><text x="1367.0" y="35.0" font-family="Inter, 'Segoe UI', Arial, sans-serif" font-size="12" fill="#FFFFFF" font-weight="600" text-anchor="middle">Connexion</text><rect x="28" y="90" width="216.0" height="7" rx="3.5" fill="#D8D8D8"/><rect x="28" y="110" width="1384" height="200" rx="3" fill="#F4F4F4" stroke="#C4C4C4" stroke-width="1"/><rect x="52" y="134" width="130" height="152" rx="3" fill="#E4E4E4" stroke="#C4C4C4" stroke-width="1"/><path d="M52,134 L182,286 M182,134 L52,286" stroke="#D0D0D0" stroke-width="1" fill="none"/><text x="117.0" y="214.0" font-family="Inter, 'Segoe UI', Arial, sans-serif" font-size="11" fill="#7A7A7A" font-weight="400" text-anchor="middle">portrait</text><rect x="206" y="150" width="220" height="20" rx="10.0" fill="#B4B4B4"/><rect x="206" y="184" width="150" height="8" rx="4.0" fill="#D8D8D8"/><rect x="206" y="208" width="560" height="7" rx="3.5" fill="#D8D8D8"/><rect x="206" y="223" width="560" height="7" rx="3.5" fill="#D8D8D8"/><rect x="206" y="238" width="347" height="7" rx="3.5" fill="#D8D8D8"/><rect x="206" y="262" width="40" height="14" rx="7.0" fill="#B4B4B4"/><rect x="206" y="282" width="66" height="7" rx="3.5" fill="#D8D8D8"/><rect x="326" y="262" width="40" height="14" rx="7.0" fill="#B4B4B4"/><rect x="326" y="282" width="66" height="7" rx="3.5" fill="#D8D8D8"/><rect x="446" y="262" width="40" height="14" rx="7.0" fill="#B4B4B4"/><rect x="446" y="282" width="66" height="7" rx="3.5" fill="#D8D8D8"/><text x="28" y="350" font-family="Inter, 'Segoe UI', Arial, sans-serif" font-size="16.0" fill="#4A4A4A" font-weight="700" text-anchor="start">Ses séries</text><rect x="28.0" y="364" width="331.0" height="180" rx="3" fill="#F4F4F4" stroke="#C4C4C4" stroke-width="1"/><rect x="38.0" y="374" width="311.0" height="114" rx="3" fill="#E4E4E4" stroke="#C4C4C4" stroke-width="1"/><path d="M38.0,374 L349.0,488 M349.0,374 L38.0,488" stroke="#D0D0D0" stroke-width="1" fill="none"/><text x="193.5" y="435.0" font-family="Inter, 'Segoe UI', Arial, sans-serif" font-size="11" fill="#7A7A7A" font-weight="400" text-anchor="middle">2:3</text><rect x="38.0" y="498" width="285.0" height="8" rx="4.0" fill="#B4B4B4"/><rect x="38.0" y="516" width="50" height="9" rx="4.5" fill="#B4B4B4"/><rect x="379.0" y="364" width="331.0" height="180" rx="3" fill="#F4F4F4" stroke="#C4C4C4" stroke-width="1"/><rect x="389.0" y="374" width="311.0" height="114" rx="3" fill="#E4E4E4" stroke="#C4C4C4" stroke-width="1"/><path d="M389.0,374 L700.0,488 M700.0,374 L389.0,488" stroke="#D0D0D0" stroke-width="1" fill="none"/><text x="544.5" y="435.0" font-family="Inter, 'Segoe UI', Arial, sans-serif" font-size="11" fill="#7A7A7A" font-weight="400" text-anchor="middle">2:3</text><rect x="389.0" y="498" width="285.0" height="8" rx="4.0" fill="#B4B4B4"/><rect x="389.0" y="516" width="50" height="9" rx="4.5" fill="#B4B4B4"/><rect x="730.0" y="364" width="331.0" height="180" rx="3" fill="#F4F4F4" stroke="#C4C4C4" stroke-width="1"/><rect x="740.0" y="374" width="311.0" height="114" rx="3" fill="#E4E4E4" stroke="#C4C4C4" stroke-width="1"/><path d="M740.0,374 L1051.0,488 M1051.0,374 L740.0,488" stroke="#D0D0D0" stroke-width="1" fill="none"/><text x="895.5" y="435.0" font-family="Inter, 'Segoe UI', Arial, sans-serif" font-size="11" fill="#7A7A7A" font-weight="400" text-anchor="middle">2:3</text><rect x="740.0" y="498" width="285.0" height="8" rx="4.0" fill="#B4B4B4"/><rect x="740.0" y="516" width="50" height="9" rx="4.5" fill="#B4B4B4"/><rect x="1081.0" y="364" width="331.0" height="180" rx="3" fill="#F4F4F4" stroke="#C4C4C4" stroke-width="1"/><rect x="1091.0" y="374" width="311.0" height="114" rx="3" fill="#E4E4E4" stroke="#C4C4C4" stroke-width="1"/><path d="M1091.0,374 L1402.0,488 M1402.0,374 L1091.0,488" stroke="#D0D0D0" stroke-width="1" fill="none"/><text x="1246.5" y="435.0" font-family="Inter, 'Segoe UI', Arial, sans-serif" font-size="11" fill="#7A7A7A" font-weight="400" text-anchor="middle">2:3</text><rect x="1091.0" y="498" width="285.0" height="8" rx="4.0" fill="#B4B4B4"/><rect x="1091.0" y="516" width="50" height="9" rx="4.5" fill="#B4B4B4"/><rect x="1336" y="318" width="30" height="30" rx="15.0" fill="#FFFFFF" stroke="#C4C4C4" stroke-width="1"/><text x="1351" y="338" font-family="Inter, 'Segoe UI', Arial, sans-serif" font-size="14" fill="#7A7A7A" font-weight="400" text-anchor="middle">‹</text><rect x="1374" y="318" width="30" height="30" rx="15.0" fill="#FFFFFF" stroke="#C4C4C4" stroke-width="1"/><text x="1389" y="338" font-family="Inter, 'Segoe UI', Arial, sans-serif" font-size="14" fill="#7A7A7A" font-weight="400" text-anchor="middle">›</text><rect x="28" y="582" width="120" height="8" rx="4.0" fill="#D8D8D8"/><rect x="1212" y="570" width="200" height="32" rx="4" fill="#FFFFFF" stroke="#C4C4C4" stroke-width="1"/><text x="1222" y="590.0" font-family="Inter, 'Segoe UI', Arial, sans-serif" font-size="12" fill="#7A7A7A" font-weight="400" text-anchor="start">Série ▾</text><rect x="28.0" y="622" width="260.8" height="200" rx="3" fill="#F4F4F4" stroke="#C4C4C4" stroke-width="1"/><rect x="38.0" y="632" width="240.8" height="124" rx="3" fill="#E4E4E4" stroke="#C4C4C4" stroke-width="1"/><path d="M38.0,632 L278.8,756 M278.8,632 L38.0,756" stroke="#D0D0D0" stroke-width="1" fill="none"/><text x="158.4" y="698.0" font-family="Inter, 'Segoe UI', Arial, sans-serif" font-size="11" fill="#7A7A7A" font-weight="400" text-anchor="middle">2:3</text><rect x="38.0" y="766" width="210.8" height="9" rx="4.5" fill="#B4B4B4"/><rect x="38.0" y="784" width="170.8" height="7" rx="3.5" fill="#D8D8D8"/><rect x="38.0" y="802" width="52" height="10" rx="5.0" fill="#B4B4B4"/><rect x="246.8" y="796" width="32" height="20" rx="5" fill="#8A8A8A"/><rect x="308.8" y="622" width="260.8" height="200" rx="3" fill="#F4F4F4" stroke="#C4C4C4" stroke-width="1"/><rect x="318.8" y="632" width="240.8" height="124" rx="3" fill="#E4E4E4" stroke="#C4C4C4" stroke-width="1"/><path d="M318.8,632 L559.6,756 M559.6,632 L318.8,756" stroke="#D0D0D0" stroke-width="1" fill="none"/><text x="439.20000000000005" y="698.0" font-family="Inter, 'Segoe UI', Arial, sans-serif" font-size="11" fill="#7A7A7A" font-weight="400" text-anchor="middle">2:3</text><rect x="318.8" y="766" width="210.8" height="9" rx="4.5" fill="#B4B4B4"/><rect x="318.8" y="784" width="170.8" height="7" rx="3.5" fill="#D8D8D8"/><rect x="318.8" y="802" width="52" height="10" rx="5.0" fill="#B4B4B4"/><rect x="527.6" y="796" width="32" height="20" rx="5" fill="#8A8A8A"/><rect x="589.6" y="622" width="260.8" height="200" rx="3" fill="#F4F4F4" stroke="#C4C4C4" stroke-width="1"/><rect x="599.6" y="632" width="240.8" height="124" rx="3" fill="#E4E4E4" stroke="#C4C4C4" stroke-width="1"/><path d="M599.6,632 L840.4000000000001,756 M840.4000000000001,632 L599.6,756" stroke="#D0D0D0" stroke-width="1" fill="none"/><text x="720.0" y="698.0" font-family="Inter, 'Segoe UI', Arial, sans-serif" font-size="11" fill="#7A7A7A" font-weight="400" text-anchor="middle">2:3</text><rect x="599.6" y="766" width="210.8" height="9" rx="4.5" fill="#B4B4B4"/><rect x="599.6" y="784" width="170.8" height="7" rx="3.5" fill="#D8D8D8"/><rect x="599.6" y="802" width="52" height="10" rx="5.0" fill="#B4B4B4"/><rect x="808.4000000000001" y="796" width="32" height="20" rx="5" fill="#8A8A8A"/><rect x="870.4000000000001" y="622" width="260.8" height="200" rx="3" fill="#F4F4F4" stroke="#C4C4C4" stroke-width="1"/><rect x="880.4000000000001" y="632" width="240.8" height="124" rx="3" fill="#E4E4E4" stroke="#C4C4C4" stroke-width="1"/><path d="M880.4000000000001,632 L1121.2,756 M1121.2,632 L880.4000000000001,756" stroke="#D0D0D0" stroke-width="1" fill="none"/><text x="1000.8000000000001" y="698.0" font-family="Inter, 'Segoe UI', Arial, sans-serif" font-size="11" fill="#7A7A7A" font-weight="400" text-anchor="middle">2:3</text><rect x="880.4000000000001" y="766" width="210.8" height="9" rx="4.5" fill="#B4B4B4"/><rect x="880.4000000000001" y="784" width="170.8" height="7" rx="3.5" fill="#D8D8D8"/><rect x="880.4000000000001" y="802" width="52" height="10" rx="5.0" fill="#B4B4B4"/><rect x="1089.2" y="796" width="32" height="20" rx="5" fill="#8A8A8A"/><rect x="1151.2" y="622" width="260.8" height="200" rx="3" fill="#F4F4F4" stroke="#C4C4C4" stroke-width="1"/><rect x="1161.2" y="632" width="240.8" height="124" rx="3" fill="#E4E4E4" stroke="#C4C4C4" stroke-width="1"/><path d="M1161.2,632 L1402.0,756 M1402.0,632 L1161.2,756" stroke="#D0D0D0" stroke-width="1" fill="none"/><text x="1281.6000000000001" y="698.0" font-family="Inter, 'Segoe UI', Arial, sans-serif" font-size="11" fill="#7A7A7A" font-weight="400" text-anchor="middle">2:3</text><rect x="1161.2" y="766" width="210.8" height="9" rx="4.5" fill="#B4B4B4"/><rect x="1161.2" y="784" width="170.8" height="7" rx="3.5" fill="#D8D8D8"/><rect x="1161.2" y="802" width="52" height="10" rx="5.0" fill="#B4B4B4"/><rect x="1370.0" y="796" width="32" height="20" rx="5" fill="#8A8A8A"/><rect x="28.0" y="842" width="260.8" height="200" rx="3" fill="#F4F4F4" stroke="#C4C4C4" stroke-width="1"/><rect x="38.0" y="852" width="240.8" height="124" rx="3" fill="#E4E4E4" stroke="#C4C4C4" stroke-width="1"/><path d="M38.0,852 L278.8,976 M278.8,852 L38.0,976" stroke="#D0D0D0" stroke-width="1" fill="none"/><text x="158.4" y="918.0" font-family="Inter, 'Segoe UI', Arial, sans-serif" font-size="11" fill="#7A7A7A" font-weight="400" text-anchor="middle">2:3</text><rect x="38.0" y="986" width="210.8" height="9" rx="4.5" fill="#B4B4B4"/><rect x="38.0" y="1004" width="170.8" height="7" rx="3.5" fill="#D8D8D8"/><rect x="38.0" y="1022" width="52" height="10" rx="5.0" fill="#B4B4B4"/><rect x="246.8" y="1016" width="32" height="20" rx="5" fill="#8A8A8A"/><rect x="308.8" y="842" width="260.8" height="200" rx="3" fill="#F4F4F4" stroke="#C4C4C4" stroke-width="1"/><rect x="318.8" y="852" width="240.8" height="124" rx="3" fill="#E4E4E4" stroke="#C4C4C4" stroke-width="1"/><path d="M318.8,852 L559.6,976 M559.6,852 L318.8,976" stroke="#D0D0D0" stroke-width="1" fill="none"/><text x="439.20000000000005" y="918.0" font-family="Inter, 'Segoe UI', Arial, sans-serif" font-size="11" fill="#7A7A7A" font-weight="400" text-anchor="middle">2:3</text><rect x="318.8" y="986" width="210.8" height="9" rx="4.5" fill="#B4B4B4"/><rect x="318.8" y="1004" width="170.8" height="7" rx="3.5" fill="#D8D8D8"/><rect x="318.8" y="1022" width="52" height="10" rx="5.0" fill="#B4B4B4"/><rect x="527.6" y="1016" width="32" height="20" rx="5" fill="#8A8A8A"/><rect x="589.6" y="842" width="260.8" height="200" rx="3" fill="#F4F4F4" stroke="#C4C4C4" stroke-width="1"/><rect x="599.6" y="852" width="240.8" height="124" rx="3" fill="#E4E4E4" stroke="#C4C4C4" stroke-width="1"/><path d="M599.6,852 L840.4000000000001,976 M840.4000000000001,852 L599.6,976" stroke="#D0D0D0" stroke-width="1" fill="none"/><text x="720.0" y="918.0" font-family="Inter, 'Segoe UI', Arial, sans-serif" font-size="11" fill="#7A7A7A" font-weight="400" text-anchor="middle">2:3</text><rect x="599.6" y="986" width="210.8" height="9" rx="4.5" fill="#B4B4B4"/><rect x="599.6" y="1004" width="170.8" height="7" rx="3.5" fill="#D8D8D8"/><rect x="599.6" y="1022" width="52" height="10" rx="5.0" fill="#B4B4B4"/><rect x="808.4000000000001" y="1016" width="32" height="20" rx="5" fill="#8A8A8A"/><rect x="870.4000000000001" y="842" width="260.8" height="200" rx="3" fill="#F4F4F4" stroke="#C4C4C4" stroke-width="1"/><rect x="880.4000000000001" y="852" width="240.8" height="124" rx="3" fill="#E4E4E4" stroke="#C4C4C4" stroke-width="1"/><path d="M880.4000000000001,852 L1121.2,976 M1121.2,852 L880.4000000000001,976" stroke="#D0D0D0" stroke-width="1" fill="none"/><text x="1000.8000000000001" y="918.0" font-family="Inter, 'Segoe UI', Arial, sans-serif" font-size="11" fill="#7A7A7A" font-weight="400" text-anchor="middle">2:3</text><rect x="880.4000000000001" y="986" width="210.8" height="9" rx="4.5" fill="#B4B4B4"/><rect x="880.4000000000001" y="1004" width="170.8" height="7" rx="3.5" fill="#D8D8D8"/><rect x="880.4000000000001" y="1022" width="52" height="10" rx="5.0" fill="#B4B4B4"/><rect x="1089.2" y="1016" width="32" height="20" rx="5" fill="#8A8A8A"/><rect x="1151.2" y="842" width="260.8" height="200" rx="3" fill="#F4F4F4" stroke="#C4C4C4" stroke-width="1"/><rect x="1161.2" y="852" width="240.8" height="124" rx="3" fill="#E4E4E4" stroke="#C4C4C4" stroke-width="1"/><path d="M1161.2,852 L1402.0,976 M1402.0,852 L1161.2,976" stroke="#D0D0D0" stroke-width="1" fill="none"/><text x="1281.6000000000001" y="918.0" font-family="Inter, 'Segoe UI', Arial, sans-serif" font-size="11" fill="#7A7A7A" font-weight="400" text-anchor="middle">2:3</text><rect x="1161.2" y="986" width="210.8" height="9" rx="4.5" fill="#B4B4B4"/><rect x="1161.2" y="1004" width="170.8" height="7" rx="3.5" fill="#D8D8D8"/><rect x="1161.2" y="1022" width="52" height="10" rx="5.0" fill="#B4B4B4"/><rect x="1370.0" y="1016" width="32" height="20" rx="5" fill="#8A8A8A"/><rect x="0" y="1084" width="1440" height="96" rx="0" fill="#EAEAEA"/><rect x="28.0" y="1106" width="68" height="8" rx="4.0" fill="#B4B4B4"/><rect x="28.0" y="1126" width="90" height="6" rx="3.0" fill="#D8D8D8"/><rect x="28.0" y="1139" width="90" height="6" rx="3.0" fill="#D8D8D8"/><rect x="28.0" y="1152" width="90" height="6" rx="3.0" fill="#D8D8D8"/><rect x="374.0" y="1106" width="68" height="8" rx="4.0" fill="#B4B4B4"/><rect x="374.0" y="1126" width="90" height="6" rx="3.0" fill="#D8D8D8"/><rect x="374.0" y="1139" width="90" height="6" rx="3.0" fill="#D8D8D8"/><rect x="374.0" y="1152" width="90" height="6" rx="3.0" fill="#D8D8D8"/><rect x="720.0" y="1106" width="68" height="8" rx="4.0" fill="#B4B4B4"/><rect x="720.0" y="1126" width="90" height="6" rx="3.0" fill="#D8D8D8"/><rect x="720.0" y="1139" width="90" height="6" rx="3.0" fill="#D8D8D8"/><rect x="720.0" y="1152" width="90" height="6" rx="3.0" fill="#D8D8D8"/><rect x="1066.0" y="1106" width="68" height="8" rx="4.0" fill="#B4B4B4"/><rect x="1066.0" y="1126" width="90" height="6" rx="3.0" fill="#D8D8D8"/><rect x="1066.0" y="1139" width="90" height="6" rx="3.0" fill="#D8D8D8"/><rect x="1066.0" y="1152" width="90" height="6" rx="3.0" fill="#D8D8D8"/><rect x="0" y="1180" width="1440" height="26" rx="0" fill="#FAFAFA"/><line x1="0" y1="1180" x2="1440" y2="1180" stroke="#E5E5E5" stroke-width="1"/><text x="28" y="1197" font-family="Inter, 'Segoe UI', Arial, sans-serif" font-size="10" fill="#7A7A7A" font-weight="400" text-anchor="start">page_auteur.html   ·   Wireframe bureau 1440 px</text></g>
<rect x="0.5" y="0.5" width="1439" height="1205" fill="none" stroke="#D4D4D4" stroke-width="1"/>
<text x="0" y="1224" font-family="Inter, 'Segoe UI', Arial, sans-serif" font-size="12" fill="#7A7A7A">Fiche auteur — Wireframe bureau 1440 px  —  1440 × 1206</text>
</svg>