<svg xmlns="http://www.w3.org/2000/svg" width="1440" height="1208" viewBox="0 0 1440 1208">
<rect width="1440" height="1208" fill="#FFFFFF"/>
<rect width="1440" height="1182" fill="#FFFFFF"/>
<g><rect x="0" y="0" width="1440" height="4000" rx="0" fill="#FFFFFF"/><rect x="0" y="0" width="1440" height="62" rx="0" fill="#FFFFFF" stroke="#C4C4C4" stroke-width="1"/><rect x="28" y="20" width="92" height="22" rx="3" fill="#B4B4B4"/><text x="74" y="35" font-family="Inter, 'Segoe UI', Arial, sans-serif" font-size="11" fill="#FFFFFF" font-weight="700" text-anchor="middle">LOGO</text><rect x="150" y="18" width="300" height="26" rx="13" fill="#FFFFFF" stroke="#C4C4C4" stroke-width="1"/><text x="166" y="35" font-family="Inter, 'Segoe UI', Arial, sans-serif" font-size="11" fill="#7A7A7A" font-weight="400" text-anchor="start">Rechercher un manga, un auteur…</text><text x="490" y="36" font-family="Inter, 'Segoe UI', Arial, sans-serif" font-size="12" fill="#4A4A4A" font-weight="400" text-anchor="start">Accueil</text><text x="573" y="36" font-family="Inter, 'Segoe UI', Arial, sans-serif" font-size="12" fill="#4A4A4A" font-weight="400" text-anchor="start">Catalogue</text><text x="670" y="36" font-family="Inter, 'Segoe UI', Arial, sans-serif" font-size="12" fill="#4A4A4A" font-weight="400" text-anchor="start">Promotions</text><text x="774" y="36" font-family="Inter, 'Segoe UI', Arial, sans-serif" font-size="12" fill="#4A4A4A" font-weight="400" text-anchor="start">Annonces</text><rect x="1190" y="18" width="32" height="26" rx="6" fill="#FFFFFF" stroke="#C4C4C4" stroke-width="1"/><text x="1206" y="36" font-family="Inter, 'Segoe UI', Arial, sans-serif" font-size="11" fill="#7A7A7A" font-weight="400" text-anchor="middle">♡</text><rect x="1232" y="18" width="32" height="26" rx="6" fill="#FFFFFF" stroke="#C4C4C4" stroke-width="1"/><text x="1248" y="36" font-family="Inter, 'Segoe UI', Arial, sans-serif" font-size="11" fill="#7A7A7A" font-weight="400" text-anchor="middle">☾</text><rect x="1274" y="18" width="32" height="26" rx="6" fill="#FFFFFF" stroke="#C4C4C4" stroke-width="1"/><text x="1290" y="36" font-family="Inter, 'Segoe UI', Arial, sans-serif" font-size="11" fill="#7A7A7A" font-weight="400" text-anchor="middle">EN</text><rect x="1322" y="17" width="90" height="28" rx="14" fill="#F4F4F4" stroke="#C4C4C4" stroke-width="1"/><text x="1367" y="36" font-family="Inter, 'Segoe UI', Arial, sans-serif" font-size="11" fill="#4A4A4A" font-weight="400" text-anchor="middle">Sakura ▾</text><rect x="28" y="90" width="167.4" height="7" rx="3.5" fill="#D8D8D8"/><rect x="28" y="110" width="1384" height="110" rx="3" fill="#EAEAEA" stroke="#C4C4C4" stroke-width="1"/><rect x="54" y="142" width="300" height="20" rx="10.0" fill="#B4B4B4"/><rect x="54" y="176" width="460" height="8" rx="4.0" fill="#D8D8D8"/><rect x="28" y="244" width="845.68" height="294" rx="3" fill="#F4F4F4" stroke="#C4C4C4" stroke-width="1"/><text x="52" y="292" font-family="Inter, 'Segoe UI', Arial, sans-serif" font-size="14.4" fill="#4A4A4A" font-weight="700" text-anchor="start">Le tome</text><rect x="52.0" y="312" width="110" height="7" rx="3.5" fill="#D8D8D8"/><rect x="52.0" y="326" width="388.84" height="36" rx="4" fill="#FFFFFF" stroke="#C4C4C4" stroke-width="1"/><text x="62.0" y="348.0" font-family="Inter, 'Segoe UI', Arial, sans-serif" font-size="12" fill="#7A7A7A" font-weight="400" text-anchor="start"></text><rect x="460.84" y="312" width="110" height="7" rx="3.5" fill="#D8D8D8"/><rect x="460.84" y="326" width="388.84" height="36" rx="4" fill="#FFFFFF" stroke="#C4C4C4" stroke-width="1"/><text x="470.84" y="348.0" font-family="Inter, 'Segoe UI', Arial, sans-serif" font-size="12" fill="#7A7A7A" font-weight="400" text-anchor="start"></text><rect x="52.0" y="378" width="110" height="7" rx="3.5" fill="#D8D8D8"/><rect x="52.0" y="392" width="388.84" height="36" rx="4" fill="#FFFFFF" stroke="#C4C4C4" stroke-width="1"/><text x="62.0" y="414.0" font-family="Inter, 'Segoe UI', Arial, sans-serif" font-size="12" fill="#7A7A7A" font-weight="400" text-anchor="start"></text><rect x="460.84" y="378" width="110" height="7" rx="3.5" fill="#D8D8D8"/><rect x="460.84" y="392" width="388.84" height="36" rx="4" fill="#FFFFFF" stroke="#C4C4C4" stroke-width="1"/><text x="470.84" y="414.0" font-family="Inter, 'Segoe UI', Arial, sans-serif" font-size="12" fill="#7A7A7A" font-weight="400" text-anchor="start"></text><rect x="28" y="558" width="845.68" height="150" rx="8" fill="#FFFFFF" stroke="#C4C4C4" stroke-width="1" stroke-dasharray="6 5"/><text x="450.84" y="633.0" font-family="Inter, 'Segoe UI', Arial, sans-serif" font-size="11" fill="#7A7A7A" font-weight="400" text-anchor="middle">DÉPÔT DE PHOTOS — 3 max, aperçu immédiat</text><rect x="28" y="730" width="845.68" height="294" rx="3" fill="#F4F4F4" stroke="#C4C4C4" stroke-width="1"/><text x="52" y="778" font-family="Inter, 'Segoe UI', Arial, sans-serif" font-size="14.4" fill="#4A4A4A" font-weight="700" text-anchor="start">L'état et le prix</text><rect x="52.0" y="798" width="110" height="7" rx="3.5" fill="#D8D8D8"/><rect x="52.0" y="812" width="388.84" height="36" rx="4" fill="#FFFFFF" stroke="#C4C4C4" stroke-width="1"/><text x="62.0" y="834.0" font-family="Inter, 'Segoe UI', Arial, sans-serif" font-size="12" fill="#7A7A7A" font-weight="400" text-anchor="start"></text><rect x="460.84" y="798" width="110" height="7" rx="3.5" fill="#D8D8D8"/><rect x="460.84" y="812" width="388.84" height="36" rx="4" fill="#FFFFFF" stroke="#C4C4C4" stroke-width="1"/><text x="470.84" y="834.0" font-family="Inter, 'Segoe UI', Arial, sans-serif" font-size="12" fill="#7A7A7A" font-weight="400" text-anchor="start"></text><rect x="52.0" y="864" width="110" height="7" rx="3.5" fill="#D8D8D8"/><rect x="52.0" y="878" width="388.84" height="36" rx="4" fill="#FFFFFF" stroke="#C4C4C4" stroke-width="1"/><text x="62.0" y="900.0" font-family="Inter, 'Segoe UI', Arial, sans-serif" font-size="12" fill="#7A7A7A" font-weight="400" text-anchor="start"></text><rect x="52" y="938" width="797.68" height="44" rx="22.0" fill="#8A8A8A"/><text x="450.84" y="964.0" font-family="Inter, 'Segoe UI', Arial, sans-serif" font-size="12" fill="#FFFFFF" font-weight="600" text-anchor="middle">Publier l'annonce</text><rect x="893.68" y="244" width="518.32" height="250" rx="3" fill="#F4F4F4" stroke="#C4C4C4" stroke-width="1"/><text x="917.68" y="286" font-family="Inter, 'Segoe UI', Arial, sans-serif" font-size="13.600000000000001" fill="#4A4A4A" font-weight="700" text-anchor="start">Comment bien vendre</text><rect x="917.68" y="304" width="470.32000000000005" height="7" rx="3.5" fill="#D8D8D8"/><rect x="917.68" y="319" width="470.32000000000005" height="7" rx="3.5" fill="#D8D8D8"/><rect x="917.68" y="334" width="291" height="7" rx="3.5" fill="#D8D8D8"/><rect x="917.68" y="365" width="470.32000000000005" height="7" rx="3.5" fill="#D8D8D8"/><rect x="917.68" y="380" width="470.32000000000005" height="7" rx="3.5" fill="#D8D8D8"/><rect x="917.68" y="395" width="291" height="7" rx="3.5" fill="#D8D8D8"/><rect x="917.68" y="426" width="470.32000000000005" height="7" rx="3.5" fill="#D8D8D8"/><rect x="917.68" y="441" width="470.32000000000005" height="7" rx="3.5" fill="#D8D8D8"/><rect x="917.68" y="456" width="291" height="7" rx="3.5" fill="#D8D8D8"/><rect x="893.68" y="516" width="518.32" height="74" rx="4" fill="#FFFFFF" stroke="#B8B8B8" stroke-width="1" stroke-dasharray="5 4"/><text x="905.68" y="536" font-family="Inter, 'Segoe UI', Arial, sans-serif" font-size="10" fill="#7A7A7A" font-weight="700" text-anchor="start">NOTE</text><text x="905.68" y="554" font-family="Inter, 'Segoe UI', Arial, sans-serif" font-size="11" fill="#7A7A7A" font-weight="400" text-anchor="start">Le formulaire est volontairement court : le persona revendeur abandonne au-delà de</text><text x="905.68" y="568" font-family="Inter, 'Segoe UI', Arial, sans-serif" font-size="11" fill="#7A7A7A" font-weight="400" text-anchor="start">deux minutes.</text><rect x="0" y="1060" width="1440" height="96" rx="0" fill="#EAEAEA"/><rect x="28.0" y="1082" width="68" height="8" rx="4.0" fill="#B4B4B4"/><rect x="28.0" y="1102" width="90" height="6" rx="3.0" fill="#D8D8D8"/><rect x="28.0" y="1115" width="90" height="6" rx="3.0" fill="#D8D8D8"/><rect x="28.0" y="1128" width="90" height="6" rx="3.0" fill="#D8D8D8"/><rect x="374.0" y="1082" width="68" height="8" rx="4.0" fill="#B4B4B4"/><rect x="374.0" y="1102" width="90" height="6" rx="3.0" fill="#D8D8D8"/><rect x="374.0" y="1115" width="90" height="6" rx="3.0" fill="#D8D8D8"/><rect x="374.0" y="1128" width="90" height="6" rx="3.0" fill="#D8D8D8"/><rect x="720.0" y="1082" width="68" height="8" rx="4.0" fill="#B4B4B4"/><rect x="720.0" y="1102" width="90" height="6" rx="3.0" fill="#D8D8D8"/><rect x="720.0" y="1115" width="90" height="6" rx="3.0" fill="#D8D8D8"/><rect x="720.0" y="1128" width="90" height="6" rx="3.0" fill="#D8D8D8"/><rect x="1066.0" y="1082" width="68" height="8" rx="4.0" fill="#B4B4B4"/><rect x="1066.0" y="1102" width="90" height="6" rx="3.0" fill="#D8D8D8"/><rect x="1066.0" y="1115" width="90" height="6" rx="3.0" fill="#D8D8D8"/><rect x="1066.0" y="1128" width="90" height="6" rx="3.0" fill="#D8D8D8"/><rect x="0" y="1156" width="1440" height="26" rx="0" fill="#FAFAFA"/><line x1="0" y1="1156" x2="1440" y2="1156" stroke="#E5E5E5" stroke-width="1"/><text x="28" y="1173" font-family="Inter, 'Segoe UI', Arial, sans-serif" font-size="10" fill="#7A7A7A" font-weight="400" text-anchor="start">page_creation_annonce.html   ·   Wireframe bureau 1440 px</text></g>
<rect x="0.5" y="0.5" width="1439" height="1181" fill="none" stroke="#D4D4D4" stroke-width="1"/>
<text x="0" y="1200" font-family="Inter, 'Segoe UI', Arial, sans-serif" font-size="12" fill="#7A7A7A">Dépôt d'une annonce — Wireframe bureau 1440 px  —  1440 × 1182</text>
</svg>