<svg xmlns="http://www.w3.org/2000/svg" width="1440" height="896" viewBox="0 0 1440 896">
<rect width="1440" height="896" fill="#FFFFFF"/>
<rect width="1440" height="870" fill="#FFFFFF"/>
<g><rect x="0" y="0" width="1440" height="4000" rx="0" fill="#FFFFFF"/><rect x="0" y="0" width="1440" height="62" rx="0" fill="#FFFFFF" stroke="#C4C4C4" stroke-width="1"/><rect x="28" y="20" width="92" height="22" rx="3" fill="#B4B4B4"/><text x="74" y="35" font-family="Inter, 'Segoe UI', Arial, sans-serif" font-size="11" fill="#FFFFFF" font-weight="700" text-anchor="middle">LOGO</text><rect x="150" y="18" width="300" height="26" rx="13" fill="#FFFFFF" stroke="#C4C4C4" stroke-width="1"/><text x="166" y="35" font-family="Inter, 'Segoe UI', Arial, sans-serif" font-size="11" fill="#7A7A7A" font-weight="400" text-anchor="start">Rechercher un manga, un auteur…</text><text x="490" y="36" font-family="Inter, 'Segoe UI', Arial, sans-serif" font-size="12" fill="#4A4A4A" font-weight="400" text-anchor="start">Accueil</text><text x="573" y="36" font-family="Inter, 'Segoe UI', Arial, sans-serif" font-size="12" fill="#4A4A4A" font-weight="400" text-anchor="start">Catalogue</text><text x="670" y="36" font-family="Inter, 'Segoe UI', Arial, sans-serif" font-size="12" fill="#4A4A4A" font-weight="400" text-anchor="start">Promotions</text><text x="774" y="36" font-family="Inter, 'Segoe UI', Arial, sans-serif" font-size="12" fill="#4A4A4A" font-weight="400" text-anchor="start">Annonces</text><rect x="1190" y="18" width="32" height="26" rx="6" fill="#FFFFFF" stroke="#C4C4C4" stroke-width="1"/><text x="1206" y="36" font-family="Inter, 'Segoe UI', Arial, sans-serif" font-size="11" fill="#7A7A7A" font-weight="400" text-anchor="middle">♡</text><rect x="1232" y="18" width="32" height="26" rx="6" fill="#FFFFFF" stroke="#C4C4C4" stroke-width="1"/><text x="1248" y="36" font-family="Inter, 'Segoe UI', Arial, sans-serif" font-size="11" fill="#7A7A7A" font-weight="400" text-anchor="middle">☾</text><rect x="1274" y="18" width="32" height="26" rx="6" fill="#FFFFFF" stroke="#C4C4C4" stroke-width="1"/><text x="1290" y="36" font-family="Inter, 'Segoe UI', Arial, sans-serif" font-size="11" fill="#7A7A7A" font-weight="400" text-anchor="middle">EN</text><rect x="1322" y="17" width="90" height="28" rx="14.0" fill="#8A8A8A"/><text x="1367.0" y="35.0" font-family="Inter, 'Segoe UI', Arial, sans-serif" font-size="12" fill="#FFFFFF" font-weight="600" text-anchor="middle">Connexion</text><rect x="28" y="90" width="102.60000000000001" height="7" rx="3.5" fill="#D8D8D8"/><rect x="28" y="110" width="1384" height="110" rx="3" fill="#EAEAEA" stroke="#C4C4C4" stroke-width="1"/><rect x="54" y="142" width="300" height="20" rx="10.0" fill="#B4B4B4"/><rect x="54" y="176" width="460" height="8" rx="4.0" fill="#D8D8D8"/><rect x="28" y="244" width="845.68" height="360" rx="3" fill="#F4F4F4" stroke="#C4C4C4" stroke-width="1"/><text x="52" y="292" font-family="Inter, 'Segoe UI', Arial, sans-serif" font-size="14.4" fill="#4A4A4A" font-weight="700" text-anchor="start">Votre message</text><rect x="52.0" y="312" width="110" height="7" rx="3.5" fill="#D8D8D8"/><rect x="52.0" y="326" width="388.84" height="36" rx="4" fill="#FFFFFF" stroke="#C4C4C4" stroke-width="1"/><text x="62.0" y="348.0" font-family="Inter, 'Segoe UI', Arial, sans-serif" font-size="12" fill="#7A7A7A" font-weight="400" text-anchor="start"></text><rect x="460.84" y="312" width="110" height="7" rx="3.5" fill="#D8D8D8"/><rect x="460.84" y="326" width="388.84" height="36" rx="4" fill="#FFFFFF" stroke="#C4C4C4" stroke-width="1"/><text x="470.84" y="348.0" font-family="Inter, 'Segoe UI', Arial, sans-serif" font-size="12" fill="#7A7A7A" font-weight="400" text-anchor="start"></text><rect x="52.0" y="378" width="110" height="7" rx="3.5" fill="#D8D8D8"/><rect x="52.0" y="392" width="388.84" height="36" rx="4" fill="#FFFFFF" stroke="#C4C4C4" stroke-width="1"/><text x="62.0" y="414.0" font-family="Inter, 'Segoe UI', Arial, sans-serif" font-size="12" fill="#7A7A7A" font-weight="400" text-anchor="start"></text><rect x="460.84" y="378" width="110" height="7" rx="3.5" fill="#D8D8D8"/><rect x="460.84" y="392" width="388.84" height="36" rx="4" fill="#FFFFFF" stroke="#C4C4C4" stroke-width="1"/><text x="470.84" y="414.0" font-family="Inter, 'Segoe UI', Arial, sans-serif" font-size="12" fill="#7A7A7A" font-weight="400" text-anchor="start"></text><rect x="52.0" y="444" width="110" height="7" rx="3.5" fill="#D8D8D8"/><rect x="52.0" y="458" width="388.84" height="36" rx="4" fill="#FFFFFF" stroke="#C4C4C4" stroke-width="1"/><text x="62.0" y="480.0" font-family="Inter, 'Segoe UI', Arial, sans-serif" font-size="12" fill="#7A7A7A" font-weight="400" text-anchor="start"></text><rect x="52" y="518" width="797.68" height="44" rx="22.0" fill="#8A8A8A"/><text x="450.84" y="544.0" font-family="Inter, 'Segoe UI', Arial, sans-serif" font-size="12" fill="#FFFFFF" font-weight="600" text-anchor="middle">Envoyer le message</text><rect x="893.68" y="244" width="518.32" height="110" rx="3" fill="#F4F4F4" stroke="#C4C4C4" stroke-width="1"/><rect x="907.68" y="258" width="64" height="64" rx="3" fill="#E4E4E4" stroke="#C4C4C4" stroke-width="1"/><path d="M907.68,258 L971.68,322 M971.68,258 L907.68,322" stroke="#D0D0D0" stroke-width="1" fill="none"/><rect x="985.68" y="268" width="150" height="10" rx="5.0" fill="#B4B4B4"/><rect x="985.68" y="290" width="400.32000000000005" height="7" rx="3.5" fill="#D8D8D8"/><rect x="985.68" y="304" width="248" height="7" rx="3.5" fill="#D8D8D8"/><rect x="907.68" y="328" width="70" height="9" rx="4.5" fill="#D8D8D8"/><rect x="893.68" y="374" width="518.32" height="110" rx="3" fill="#F4F4F4" stroke="#C4C4C4" stroke-width="1"/><rect x="907.68" y="388" width="64" height="64" rx="3" fill="#E4E4E4" stroke="#C4C4C4" stroke-width="1"/><path d="M907.68,388 L971.68,452 M971.68,388 L907.68,452" stroke="#D0D0D0" stroke-width="1" fill="none"/><rect x="985.68" y="398" width="150" height="10" rx="5.0" fill="#B4B4B4"/><rect x="985.68" y="420" width="400.32000000000005" height="7" rx="3.5" fill="#D8D8D8"/><rect x="985.68" y="434" width="248" height="7" rx="3.5" fill="#D8D8D8"/><rect x="907.68" y="458" width="70" height="9" rx="4.5" fill="#D8D8D8"/><rect x="893.68" y="504" width="518.32" height="110" rx="3" fill="#F4F4F4" stroke="#C4C4C4" stroke-width="1"/><rect x="907.68" y="518" width="64" height="64" rx="3" fill="#E4E4E4" stroke="#C4C4C4" stroke-width="1"/><path d="M907.68,518 L971.68,582 M971.68,518 L907.68,582" stroke="#D0D0D0" stroke-width="1" fill="none"/><rect x="985.68" y="528" width="150" height="10" rx="5.0" fill="#B4B4B4"/><rect x="985.68" y="550" width="400.32000000000005" height="7" rx="3.5" fill="#D8D8D8"/><rect x="985.68" y="564" width="248" height="7" rx="3.5" fill="#D8D8D8"/><rect x="907.68" y="588" width="70" height="9" rx="4.5" fill="#D8D8D8"/><rect x="893.68" y="640" width="518.32" height="74" rx="4" fill="#FFFFFF" stroke="#B8B8B8" stroke-width="1" stroke-dasharray="5 4"/><text x="905.68" y="660" font-family="Inter, 'Segoe UI', Arial, sans-serif" font-size="10" fill="#7A7A7A" font-weight="700" text-anchor="start">NOTE</text><text x="905.68" y="678" font-family="Inter, 'Segoe UI', Arial, sans-serif" font-size="11" fill="#7A7A7A" font-weight="400" text-anchor="start">Le message est enregistré en base et relevé depuis le back-office, section « Messages</text><text x="905.68" y="692" font-family="Inter, 'Segoe UI', Arial, sans-serif" font-size="11" fill="#7A7A7A" font-weight="400" text-anchor="start">».</text><rect x="0" y="748" width="1440" height="96" rx="0" fill="#EAEAEA"/><rect x="28.0" y="770" width="68" height="8" rx="4.0" fill="#B4B4B4"/><rect x="28.0" y="790" width="90" height="6" rx="3.0" fill="#D8D8D8"/><rect x="28.0" y="803" width="90" height="6" rx="3.0" fill="#D8D8D8"/><rect x="28.0" y="816" width="90" height="6" rx="3.0" fill="#D8D8D8"/><rect x="374.0" y="770" width="68" height="8" rx="4.0" fill="#B4B4B4"/><rect x="374.0" y="790" width="90" height="6" rx="3.0" fill="#D8D8D8"/><rect x="374.0" y="803" width="90" height="6" rx="3.0" fill="#D8D8D8"/><rect x="374.0" y="816" width="90" height="6" rx="3.0" fill="#D8D8D8"/><rect x="720.0" y="770" width="68" height="8" rx="4.0" fill="#B4B4B4"/><rect x="720.0" y="790" width="90" height="6" rx="3.0" fill="#D8D8D8"/><rect x="720.0" y="803" width="90" height="6" rx="3.0" fill="#D8D8D8"/><rect x="720.0" y="816" width="90" height="6" rx="3.0" fill="#D8D8D8"/><rect x="1066.0" y="770" width="68" height="8" rx="4.0" fill="#B4B4B4"/><rect x="1066.0" y="790" width="90" height="6" rx="3.0" fill="#D8D8D8"/><rect x="1066.0" y="803" width="90" height="6" rx="3.0" fill="#D8D8D8"/><rect x="1066.0" y="816" width="90" height="6" rx="3.0" fill="#D8D8D8"/><rect x="0" y="844" width="1440" height="26" rx="0" fill="#FAFAFA"/><line x1="0" y1="844" x2="1440" y2="844" stroke="#E5E5E5" stroke-width="1"/><text x="28" y="861" font-family="Inter, 'Segoe UI', Arial, sans-serif" font-size="10" fill="#7A7A7A" font-weight="400" text-anchor="start">page_contact.html   ·   Wireframe bureau 1440 px</text></g>
<rect x="0.5" y="0.5" width="1439" height="869" fill="none" stroke="#D4D4D4" stroke-width="1"/>
<text x="0" y="888" font-family="Inter, 'Segoe UI', Arial, sans-serif" font-size="12" fill="#7A7A7A">Contact — Wireframe bureau 1440 px  —  1440 × 870</text>
</svg>