<svg xmlns="http://www.w3.org/2000/svg" width="1440" height="816" viewBox="0 0 1440 816">
<rect width="1440" height="816" fill="#FFFFFF"/>
<rect width="1440" height="790" fill="#FFFFFF"/>
<g><rect x="0" y="0" width="1440" height="4000" rx="0" fill="#FFFFFF"/><rect x="0" y="0" width="1440" height="56" rx="0" fill="#4A4A4A"/><text x="28" y="34.0" font-family="Inter, 'Segoe UI', Arial, sans-serif" font-size="16" fill="#FFFFFF" font-weight="800" text-anchor="start">KINKA</text><text x="80" y="34.0" font-family="Inter, 'Segoe UI', Arial, sans-serif" font-size="16" fill="#BBBBBB" font-weight="800" text-anchor="start">ADMIN</text><text x="1222" y="33.0" font-family="Inter, 'Segoe UI', Arial, sans-serif" font-size="12" fill="#CCCCCC" font-weight="400" text-anchor="start">Voir la boutique</text><rect x="1316" y="14.0" width="96" height="28" rx="14.0" fill="#FFFFFF" opacity="0.14"/><text x="1364" y="33.0" font-family="Inter, 'Segoe UI', Arial, sans-serif" font-size="11.5" fill="#FFFFFF" font-weight="600" text-anchor="middle">Camille ▾</text><rect x="28" y="74" width="1384" height="100" rx="3" fill="#EAEAEA" stroke="#C4C4C4" stroke-width="1"/><rect x="54" y="106" width="300" height="20" rx="10.0" fill="#B4B4B4"/><rect x="54" y="140" width="460" height="8" rx="4.0" fill="#D8D8D8"/><rect x="28" y="198" width="300.08" height="366" rx="3" fill="#F4F4F4" stroke="#C4C4C4" stroke-width="1"/><rect x="48" y="224" width="90" height="8" rx="4.0" fill="#D8D8D8"/><rect x="48" y="262" width="54" height="8" rx="4.0" fill="#D8D8D8"/><rect x="48" y="300" width="54" height="8" rx="4.0" fill="#D8D8D8"/><rect x="36" y="326" width="284.08" height="32" rx="8" fill="#EAEAEA"/><rect x="48" y="338" width="24" height="8" rx="4.0" fill="#B4B4B4"/><rect x="48" y="376" width="48" height="8" rx="4.0" fill="#D8D8D8"/><rect x="48" y="414" width="48" height="8" rx="4.0" fill="#D8D8D8"/><rect x="48" y="452" width="60" height="8" rx="4.0" fill="#D8D8D8"/><rect x="48" y="490" width="72" height="8" rx="4.0" fill="#D8D8D8"/><rect x="48" y="528" width="42" height="8" rx="4.0" fill="#D8D8D8"/><rect x="348.08" y="210" width="108" height="8" rx="4.0" fill="#D8D8D8"/><rect x="1212.0" y="198" width="200" height="32" rx="4" fill="#FFFFFF" stroke="#C4C4C4" stroke-width="1"/><text x="1222.0" y="218.0" font-family="Inter, 'Segoe UI', Arial, sans-serif" font-size="12" fill="#7A7A7A" font-weight="400" text-anchor="start">Filtrer ▾</text><rect x="348.08" y="250" width="1063.92" height="38" rx="8" fill="#EAEAEA" stroke="#C4C4C4" stroke-width="1"/><rect x="362.08" y="266" width="24" height="7" rx="3.5" fill="#B4B4B4"/><rect x="539.4" y="266" width="42" height="7" rx="3.5" fill="#B4B4B4"/><rect x="716.72" y="266" width="36" height="7" rx="3.5" fill="#B4B4B4"/><rect x="894.04" y="266" width="24" height="7" rx="3.5" fill="#B4B4B4"/><rect x="1071.3600000000001" y="266" width="42" height="7" rx="3.5" fill="#B4B4B4"/><rect x="1248.68" y="266" width="42" height="7" rx="3.5" fill="#B4B4B4"/><rect x="348.08" y="288" width="1063.92" height="42" rx="0" fill="#F4F4F4"/><line x1="348.08" y1="330" x2="1412.0" y2="330" stroke="#C4C4C4" stroke-width="1"/><rect x="362.08" y="306" width="135.32000000000002" height="7" rx="3.5" fill="#D8D8D8"/><rect x="539.4" y="306" width="135.32000000000002" height="7" rx="3.5" fill="#D8D8D8"/><rect x="716.72" y="306" width="135.32000000000002" height="7" rx="3.5" fill="#D8D8D8"/><rect x="894.04" y="306" width="135.32000000000002" height="7" rx="3.5" fill="#D8D8D8"/><rect x="1071.3600000000001" y="306" width="135.32000000000002" height="7" rx="3.5" fill="#D8D8D8"/><rect x="1248.68" y="306" width="135.32000000000002" height="7" rx="3.5" fill="#D8D8D8"/><rect x="348.08" y="330" width="1063.92" height="42" rx="0" fill="#FFFFFF"/><line x1="348.08" y1="372" x2="1412.0" y2="372" stroke="#C4C4C4" stroke-width="1"/><rect x="362.08" y="348" width="135.32000000000002" height="7" rx="3.5" fill="#D8D8D8"/><rect x="539.4" y="348" width="135.32000000000002" height="7" rx="3.5" fill="#D8D8D8"/><rect x="716.72" y="348" width="135.32000000000002" height="7" rx="3.5" fill="#D8D8D8"/><rect x="894.04" y="348" width="135.32000000000002" height="7" rx="3.5" fill="#D8D8D8"/><rect x="1071.3600000000001" y="348" width="135.32000000000002" height="7" rx="3.5" fill="#D8D8D8"/><rect x="1248.68" y="348" width="135.32000000000002" height="7" rx="3.5" fill="#D8D8D8"/><rect x="348.08" y="372" width="1063.92" height="42" rx="0" fill="#F4F4F4"/><line x1="348.08" y1="414" x2="1412.0" y2="414" stroke="#C4C4C4" stroke-width="1"/><rect x="362.08" y="390" width="135.32000000000002" height="7" rx="3.5" fill="#D8D8D8"/><rect x="539.4" y="390" width="135.32000000000002" height="7" rx="3.5" fill="#D8D8D8"/><rect x="716.72" y="390" width="135.32000000000002" height="7" rx="3.5" fill="#D8D8D8"/><rect x="894.04" y="390" width="135.32000000000002" height="7" rx="3.5" fill="#D8D8D8"/><rect x="1071.3600000000001" y="390" width="135.32000000000002" height="7" rx="3.5" fill="#D8D8D8"/><rect x="1248.68" y="390" width="135.32000000000002" height="7" rx="3.5" fill="#D8D8D8"/><rect x="348.08" y="414" width="1063.92" height="42" rx="0" fill="#FFFFFF"/><line x1="348.08" y1="456" x2="1412.0" y2="456" stroke="#C4C4C4" stroke-width="1"/><rect x="362.08" y="432" width="135.32000000000002" height="7" rx="3.5" fill="#D8D8D8"/><rect x="539.4" y="432" width="135.32000000000002" height="7" rx="3.5" fill="#D8D8D8"/><rect x="716.72" y="432" width="135.32000000000002" height="7" rx="3.5" fill="#D8D8D8"/><rect x="894.04" y="432" width="135.32000000000002" height="7" rx="3.5" fill="#D8D8D8"/><rect x="1071.3600000000001" y="432" width="135.32000000000002" height="7" rx="3.5" fill="#D8D8D8"/><rect x="1248.68" y="432" width="135.32000000000002" height="7" rx="3.5" fill="#D8D8D8"/><rect x="348.08" y="456" width="1063.92" height="42" rx="0" fill="#F4F4F4"/><line x1="348.08" y1="498" x2="1412.0" y2="498" stroke="#C4C4C4" stroke-width="1"/><rect x="362.08" y="474" width="135.32000000000002" height="7" rx="3.5" fill="#D8D8D8"/><rect x="539.4" y="474" width="135.32000000000002" height="7" rx="3.5" fill="#D8D8D8"/><rect x="716.72" y="474" width="135.32000000000002" height="7" rx="3.5" fill="#D8D8D8"/><rect x="894.04" y="474" width="135.32000000000002" height="7" rx="3.5" fill="#D8D8D8"/><rect x="1071.3600000000001" y="474" width="135.32000000000002" height="7" rx="3.5" fill="#D8D8D8"/><rect x="1248.68" y="474" width="135.32000000000002" height="7" rx="3.5" fill="#D8D8D8"/><rect x="348.08" y="498" width="1063.92" height="42" rx="0" fill="#FFFFFF"/><line x1="348.08" y1="540" x2="1412.0" y2="540" stroke="#C4C4C4" stroke-width="1"/><rect x="362.08" y="516" width="135.32000000000002" height="7" rx="3.5" fill="#D8D8D8"/><rect x="539.4" y="516" width="135.32000000000002" height="7" rx="3.5" fill="#D8D8D8"/><rect x="716.72" y="516" width="135.32000000000002" height="7" rx="3.5" fill="#D8D8D8"/><rect x="894.04" y="516" width="135.32000000000002" height="7" rx="3.5" fill="#D8D8D8"/><rect x="1071.3600000000001" y="516" width="135.32000000000002" height="7" rx="3.5" fill="#D8D8D8"/><rect x="1248.68" y="516" width="135.32000000000002" height="7" rx="3.5" fill="#D8D8D8"/><rect x="348.08" y="540" width="1063.92" height="42" rx="0" fill="#F4F4F4"/><line x1="348.08" y1="582" x2="1412.0" y2="582" stroke="#C4C4C4" stroke-width="1"/><rect x="362.08" y="558" width="135.32000000000002" height="7" rx="3.5" fill="#D8D8D8"/><rect x="539.4" y="558" width="135.32000000000002" height="7" rx="3.5" fill="#D8D8D8"/><rect x="716.72" y="558" width="135.32000000000002" height="7" rx="3.5" fill="#D8D8D8"/><rect x="894.04" y="558" width="135.32000000000002" height="7" rx="3.5" fill="#D8D8D8"/><rect x="1071.3600000000001" y="558" width="135.32000000000002" height="7" rx="3.5" fill="#D8D8D8"/><rect x="1248.68" y="558" width="135.32000000000002" height="7" rx="3.5" fill="#D8D8D8"/><rect x="348.08" y="582" width="1063.92" height="42" rx="0" fill="#FFFFFF"/><line x1="348.08" y1="624" x2="1412.0" y2="624" stroke="#C4C4C4" stroke-width="1"/><rect x="362.08" y="600" width="135.32000000000002" height="7" rx="3.5" fill="#D8D8D8"/><rect x="539.4" y="600" width="135.32000000000002" height="7" rx="3.5" fill="#D8D8D8"/><rect x="716.72" y="600" width="135.32000000000002" height="7" rx="3.5" fill="#D8D8D8"/><rect x="894.04" y="600" width="135.32000000000002" height="7" rx="3.5" fill="#D8D8D8"/><rect x="1071.3600000000001" y="600" width="135.32000000000002" height="7" rx="3.5" fill="#D8D8D8"/><rect x="1248.68" y="600" width="135.32000000000002" height="7" rx="3.5" fill="#D8D8D8"/><rect x="348.08" y="646" width="1063.92" height="60" rx="4" fill="#FFFFFF" stroke="#B8B8B8" stroke-width="1" stroke-dasharray="5 4"/><text x="360.08" y="666" font-family="Inter, 'Segoe UI', Arial, sans-serif" font-size="10" fill="#7A7A7A" font-weight="700" text-anchor="start">NOTE</text><text x="360.08" y="684" font-family="Inter, 'Segoe UI', Arial, sans-serif" font-size="11" fill="#7A7A7A" font-weight="400" text-anchor="start">Chaque action de modération est tracée dans le journal : auteur, action, cible et adresse IP.</text><rect x="0" y="764" width="1440" height="26" rx="0" fill="#FAFAFA"/><line x1="0" y1="764" x2="1440" y2="764" stroke="#E5E5E5" stroke-width="1"/><text x="28" y="781" font-family="Inter, 'Segoe UI', Arial, sans-serif" font-size="10" fill="#7A7A7A" font-weight="400" text-anchor="start">page_admin.html #avis   ·   Wireframe bureau 1440 px</text></g>
<rect x="0.5" y="0.5" width="1439" height="789" fill="none" stroke="#D4D4D4" stroke-width="1"/>
<text x="0" y="808" font-family="Inter, 'Segoe UI', Arial, sans-serif" font-size="12" fill="#7A7A7A">Back-office — modération des avis — Wireframe bureau 1440 px  —  1440 × 790</text>
</svg>